<svg width="41" height="42" viewBox="0 0 41 42" version="1.1" xmlns="http://www.w3.org/2000/svg" xmlns:xlink="http://www.w3.org/1999/xlink">
    <title>percentage</title>
    <desc>Created using Figma</desc>
    <g id="Canvas" transform="translate(-658 2864)">
        <g id="percentage">
            <g id="Percent 1">
                <g id="Vector">
                    <use xlink:href="#path0_fill" transform="translate(672.734 -2850.88)" fill="#2B8BBB"/>
                </g>
                <g id="Vector">
                    <use xlink:href="#path1_fill" transform="translate(658 -2864)" fill="#2B8BBB"/>
                </g>
                <g id="Vector">
                    <use xlink:href="#path2_fill" transform="translate(672.094 -2851.53)" fill="#2B8BBB"/>
                </g>
                <g id="Vector">
                    <use xlink:href="#path3_fill" transform="translate(679.14 -2841.03)" fill="#2B8BBB"/>
                </g>
            </g>
        </g>
    </g>
    <defs>
        <path id="path0_fill" d="M 11.2674 0.125757C 10.9802 -0.0876563 10.5805 -0.0229498 10.3728 0.270591L 0.122763 14.7081C -0.0855693 15.001 -0.0224034 15.4118 0.264148 15.6245C 0.377987 15.7091 0.50938 15.7501 0.640131 15.7501C 0.838482 15.7501 1.0336 15.6566 1.15879 15.4797L 11.4088 1.04221C 11.6171 0.749325 11.5539 0.338513 11.2674 0.125757Z"/>
        <path id="path1_fill" d="M 20.5 0C 9.17817 0 0 9.40196 0 21C 0 32.598 9.17817 42 20.5 42C 31.8218 42 41 32.598 41 21C 41 9.40196 31.8218 0 20.5 0ZM 20.5 40.6875C 9.90272 40.6875 1.28125 31.8558 1.28125 21C 1.28125 10.1442 9.90272 1.3125 20.5 1.3125C 31.0972 1.3125 39.7188 10.1442 39.7188 21C 39.7188 31.8558 31.0972 40.6875 20.5 40.6875Z"/>
        <path id="path2_fill" d="M 3.20312 6.5625C 4.97215 6.5625 6.40625 5.09342 6.40625 3.28125C 6.40625 1.46908 4.97215 0 3.20312 0C 1.43412 0 0 1.46908 0 3.28125C 0 5.09342 1.43412 6.5625 3.20312 6.5625ZM 3.20312 1.3125C 4.26285 1.3125 5.125 2.19568 5.125 3.28125C 5.125 4.36682 4.26285 5.25 3.20312 5.25C 2.1434 5.25 1.28125 4.36682 1.28125 3.28125C 1.28125 2.19568 2.1434 1.3125 3.20312 1.3125Z"/>
        <path id="path3_fill" d="M 3.20312 0C 1.43412 0 0 1.46908 0 3.28125C 0 5.09342 1.43412 6.5625 3.20312 6.5625C 4.97215 6.5625 6.40625 5.09342 6.40625 3.28125C 6.40625 1.46908 4.97215 0 3.20312 0ZM 3.20312 5.25C 2.1434 5.25 1.28125 4.36682 1.28125 3.28125C 1.28125 2.19568 2.1434 1.3125 3.20312 1.3125C 4.26285 1.3125 5.125 2.19568 5.125 3.28125C 5.125 4.36682 4.26285 5.25 3.20312 5.25Z"/>
    </defs>
</svg>
