<svg width="36" height="47" viewBox="0 0 36 47" version="1.1" xmlns="http://www.w3.org/2000/svg" xmlns:xlink="http://www.w3.org/1999/xlink">
    <title>worldwide</title>
    <desc>Created using Figma</desc>
    <g id="Canvas" transform="translate(-657 3044)">
        <g id="worldwide">
            <g id="Group">
                <g id="Vector">
                    <use xlink:href="#path0_fill" transform="translate(657 -3044)" fill="#2B8BBB"/>
                </g>
            </g>
        </g>
    </g>
    <defs>
        <path id="path0_fill" d="M 36 16.45C 36 10.8343 33.1686 5.87108 28.8639 2.90147L 28.8623 2.88972L 28.7488 2.8153C 28.7457 2.81373 28.7433 2.81138 28.7402 2.80982L 28.5617 2.69232C 28.2079 2.46045 27.8454 2.24425 27.4775 2.04137C 27.3484 1.97008 27.2137 1.90742 27.0822 1.83927C 26.7894 1.68808 26.4935 1.54317 26.1929 1.41C 26.0277 1.33637 25.861 1.26665 25.6927 1.1985C 25.3835 1.07317 25.0696 0.959583 24.7541 0.853833C 24.6148 0.807617 24.4786 0.755917 24.3384 0.712833C 23.8938 0.577317 23.4429 0.461383 22.9873 0.36425C 22.8542 0.33605 22.7188 0.315683 22.5849 0.290617C 22.2233 0.22325 21.8593 0.16685 21.4921 0.123767C 21.345 0.106533 21.1986 0.0885167 21.0506 0.0752C 20.5567 0.03055 20.0604 0 19.5609 0C 19.0544 0 18.5519 0.0313333 18.0524 0.0767667C 17.9108 0.0900833 17.7714 0.107317 17.6305 0.123767C 17.2485 0.168417 16.8696 0.227167 16.4939 0.297667C 16.3725 0.320383 16.2504 0.339967 16.1306 0.365817C 15.156 0.5734 14.2049 0.870283 13.2851 1.25177C 13.1896 1.29172 13.0965 1.33323 13.0017 1.37475C 12.6229 1.54003 12.2502 1.7202 11.8839 1.91447C 11.8056 1.95598 11.7265 1.99593 11.6483 2.03823C 11.1997 2.28577 10.7582 2.54662 10.3308 2.83723L 9.99417 3.06675L 9.99339 3.09887C 9.47908 3.46938 8.98982 3.86967 8.5217 4.29502L 6.27581 2.04763L 5.72236 2.60145C 2.03297 6.29565 3.28481e-08 11.2126 3.28481e-08 16.45C 3.28481e-08 21.6874 2.03296 26.6044 5.72393 30.2978C 9.23171 33.8079 13.8456 35.8156 18.7875 36.0067L 18.7875 43.0833L 10.9594 43.0833L 10.9594 47L 28.1813 47L 28.1813 43.0833L 20.3531 43.0833L 20.3531 36.0059C 25.288 35.8109 29.8956 33.804 33.3995 30.2978L 33.9529 29.744L 31.7071 27.4966C 34.3647 24.5732 36 20.7035 36 16.45ZM 11.5434 3.9339C 12.2236 3.49602 12.9375 3.10513 13.6875 2.78162C 13.7611 2.7495 13.8362 2.71973 13.9098 2.68918C 14.2683 2.54113 14.6331 2.40718 15.005 2.28733C 15.0731 2.2654 15.1396 2.24033 15.2077 2.21997C 15.6351 2.08915 16.0711 1.97557 16.5142 1.88313C 16.5839 1.86825 16.6543 1.85885 16.7248 1.84553C 17.0943 1.77347 17.4685 1.71707 17.8466 1.67398C 17.9656 1.65988 18.0845 1.64657 18.2043 1.6356C 18.6513 1.59487 19.103 1.56667 19.5609 1.56667C 20.0134 1.56667 20.4596 1.59487 20.9019 1.63482C 21.0146 1.645 21.1273 1.65518 21.2401 1.6685C 21.6675 1.71707 22.091 1.77895 22.5067 1.86277C 22.581 1.87765 22.6538 1.8988 22.7282 1.91447C 23.0765 1.99045 23.4194 2.08053 23.7584 2.18002C 23.8907 2.21918 24.023 2.25835 24.1537 2.30143C 24.5357 2.42598 24.9138 2.5615 25.2817 2.71582C 25.3788 2.75655 25.4727 2.80433 25.569 2.84663C 25.8594 2.97588 26.146 3.11375 26.4262 3.26023C 26.5601 3.32995 26.6931 3.40123 26.8246 3.47565C 26.8888 3.51168 26.9491 3.5532 27.0133 3.59002C 24.5772 4.47205 23.1791 5.50997 21.5931 7.5717C 21.4984 7.69547 21.4217 7.83098 21.3653 7.97355C 21.2816 7.88582 21.1876 7.80748 21.0851 7.74012C 20.5293 7.37508 19.795 7.38683 18.8995 7.77693L 18.7828 7.79025C 17.6924 7.91167 16.9056 8.00018 16.8422 9.38198C 16.8109 10.0651 17.1757 10.7379 17.7714 11.0959C 17.8857 11.1649 18.0039 11.2189 18.1245 11.2589C 18.1393 11.2878 18.1558 11.3168 18.1746 11.3458L 18.3577 11.6074C 17.9679 11.5017 17.5898 11.4468 17.2188 11.3928C 16.7475 11.3246 16.3036 11.2596 15.8629 11.0904C 14.1799 10.445 12.9376 7.61008 12.0303 5.54052C 11.8557 5.14258 11.6897 4.76502 11.5246 4.37178C 11.5324 4.22138 11.5387 4.07647 11.5434 3.9339ZM 22.5943 21.0842C 21.125 19.8669 20.5708 18.1099 21.1814 16.6082C 21.4953 15.8382 21.1782 14.9812 20.4267 14.5332C 20.3978 14.4282 20.3711 14.2277 20.3516 14.0883C 20.2983 13.6856 20.2334 13.2007 19.9962 12.7362C 20.1246 12.831 20.2702 12.9046 20.4275 12.9532C 20.5692 12.9971 20.6068 13.0331 20.6287 13.0965C 20.8236 13.7687 21.2737 14.2676 21.8632 14.4643C 22.4292 14.6515 23.0538 14.534 23.5775 14.1384C 23.7325 14.0225 23.7592 14.0005 24.358 14.2896C 24.7674 14.4878 25.277 14.7345 25.9855 14.8128C 26.4019 15.2507 26.7299 15.8085 27.0462 16.349C 27.5386 17.1863 28.0466 18.0535 28.9163 18.5055C 29.2052 18.6551 29.0267 19.5849 28.3848 21.2667C 28.3261 21.4218 28.2705 21.5683 28.222 21.7015C 27.4086 22.343 26.91 23.0574 26.4262 23.7499C 25.9831 24.386 25.5635 24.986 24.8927 25.5633C 23.8562 26.4563 23.0194 26.967 21.9524 27.2788C 23.0562 25.3056 24.322 22.5154 22.5943 21.0842ZM 19.1727 9.46188L 18.6388 9.77757C 18.638 9.77757 18.638 9.77757 18.638 9.77757C 18.6231 9.77757 18.5722 9.76112 18.5159 9.70472C 18.4439 9.63343 18.4016 9.53708 18.4055 9.45405C 18.4063 9.43995 18.4071 9.42742 18.4078 9.41488C 18.5519 9.39217 18.7554 9.36867 18.9558 9.34673L 19.3245 9.30443L 19.4396 9.25117C 20.0267 8.97778 20.2248 9.04907 20.2248 9.04907C 20.2263 9.04985 20.3899 9.21435 20.3696 9.95147L 20.3625 10.1998C 20.2161 10.1434 20.0251 10.0972 19.7746 10.0807C 19.741 10.0188 19.6964 9.95695 19.6384 9.89663L 19.1727 9.46188ZM 19.5257 12.1409C 19.4091 12.0453 19.2862 11.9678 19.1828 11.9169C 19.038 11.8464 18.8955 11.786 18.7546 11.7351L 18.9816 11.6967C 19.1382 11.6709 19.2822 11.6552 19.4044 11.6482C 19.4177 11.8174 19.4576 11.9842 19.5257 12.1409ZM 10.0818 4.9914C 10.0936 5.02117 10.0975 5.05485 10.1116 5.08383C 10.2658 5.41675 10.4263 5.78413 10.5962 6.1711C 11.671 8.62372 13.008 11.6748 15.3016 12.5545C 15.9052 12.7864 16.4837 12.8702 16.9933 12.9446C 17.5468 13.0253 18.0251 13.0942 18.4885 13.3214C 18.5096 13.3331 18.5488 13.3598 18.548 13.3566C 18.7061 13.5885 18.7546 13.948 18.8 14.2951C 18.8736 14.8442 18.9644 15.528 19.6016 15.8656C 19.6831 15.9087 19.7465 15.9808 19.7316 16.0168C 18.8564 18.1655 19.5883 20.6291 21.5955 22.2913C 21.9399 22.5765 22.2671 23.5055 20.5864 26.5158C 20.26 27.1018 20.3297 27.8115 20.7633 28.3253C 21.0772 28.6982 21.525 28.8995 21.9884 28.8995C 22.1693 28.8995 22.3532 28.869 22.5325 28.8055C 23.7239 28.3802 24.7361 27.766 25.9142 26.7516C 26.7346 26.0458 27.2528 25.3025 27.71 24.6476C 28.1938 23.9543 28.6118 23.3559 29.3336 22.8232L 29.5567 22.6313L 29.6326 22.408C 29.6897 22.2404 29.7657 22.0422 29.8479 21.826C 30.3951 20.3894 31.311 17.9861 29.6373 17.1151C 29.1676 16.8714 28.8099 16.2612 28.3958 15.5562C 28.0513 14.9679 27.6599 14.3013 27.1182 13.7326C 26.8771 13.4804 26.5436 13.3206 26.1506 13.2681C 25.7287 13.2141 25.3788 13.0441 25.0391 12.8804C 24.4253 12.5827 23.5846 12.1769 22.6358 12.8874C 22.5732 12.936 22.455 13.0065 22.3571 12.9783C 22.2851 12.954 22.1888 12.8584 22.1309 12.6594C 21.961 12.0743 21.5947 11.6991 20.9825 11.4876C 21.0671 11.2267 21.053 10.9643 20.9465 10.7356L 21.0365 10.7497C 21.7395 10.8531 22.2655 10.7074 22.6069 10.3149C 22.9583 9.91152 23.028 9.33498 22.8143 8.601C 22.8104 8.58847 22.8143 8.55243 22.8347 8.5258C 24.3134 6.60193 25.4884 5.7669 27.8642 4.95067C 28.0999 4.86998 28.3026 4.73212 28.4686 4.56057C 32.082 7.27795 34.4336 11.5894 34.4336 16.45C 34.4336 24.657 27.7617 31.3333 19.5601 31.3333C 11.3586 31.3333 4.6867 24.657 4.6867 16.45C 4.68748 11.8456 6.78934 7.72288 10.0818 4.9914ZM 26.6156 44.65L 26.6156 45.4333L 12.525 45.4333L 12.525 44.65L 26.6156 44.65ZM 31.7266 29.7314C 24.6711 36.2104 13.6648 36.0279 6.83004 29.1901C 3.43577 25.7928 1.56563 21.2683 1.56563 16.45C 1.56563 11.8949 3.23693 7.60147 6.28834 4.27622L 7.41559 5.40343C 4.75794 8.32683 3.12186 12.1965 3.12186 16.45C 3.12186 25.5202 10.4967 32.9 19.5609 32.9C 23.8116 32.9 27.6787 31.2628 30.5994 28.6042L 31.7266 29.7314Z"/>
    </defs>
</svg>
