<svg width="43" height="38" viewBox="0 0 43 38" version="1.1" xmlns="http://www.w3.org/2000/svg" xmlns:xlink="http://www.w3.org/1999/xlink">
    <title>Group</title>
    <desc>Created using Figma</desc>
    <g id="Canvas" transform="translate(157 3043)">
        <g id="Group">
            <g id="Group">
                <g id="Vector">
                    <use xlink:href="#path0_fill" transform="translate(-133.612 -3043)" fill="#2B8BBB"/>
                </g>
                <g id="Vector">
                    <use xlink:href="#path1_fill" transform="translate(-133.419 -3032.96)" fill="#2B8BBB"/>
                </g>
                <g id="Vector">
                    <use xlink:href="#path2_fill" transform="translate(-133.419 -3027.51)" fill="#2B8BBB"/>
                </g>
                <g id="Vector">
                    <use xlink:href="#path3_fill" transform="translate(-133.419 -3022.06)" fill="#2B8BBB"/>
                </g>
                <g id="Vector">
                    <use xlink:href="#path4_fill" transform="translate(-133.419 -3016.6)" fill="#2B8BBB"/>
                </g>
                <g id="Vector">
                    <use xlink:href="#path5_fill" transform="translate(-133.419 -3011.15)" fill="#2B8BBB"/>
                </g>
                <g id="Vector">
                    <use xlink:href="#path6_fill" transform="translate(-156.815 -3022.06)" fill="#2B8BBB"/>
                </g>
                <g id="Vector">
                    <use xlink:href="#path7_fill" transform="translate(-156.815 -3016.6)" fill="#2B8BBB"/>
                </g>
                <g id="Vector">
                    <use xlink:href="#path8_fill" transform="translate(-156.815 -3011.15)" fill="#2B8BBB"/>
                </g>
                <g id="Vector">
                    <use xlink:href="#path9_fill" transform="translate(-157 -3032.09)" fill="#2B8BBB"/>
                </g>
            </g>
        </g>
    </g>
    <defs>
        <path id="path0_fill" d="M 9.64455 10.0053C 15.1456 10.0053 19.2891 7.8562 19.2891 5.00264C 19.2891 2.14909 15.1456 -6.80341e-08 9.64455 -6.80341e-08C 4.14352 -6.80341e-08 5.41542e-07 2.14909 5.41542e-07 5.00264C 5.41542e-07 7.8562 4.14352 10.0053 9.64455 10.0053ZM 9.64455 2.14909C 14.2317 2.14909 17.1597 3.84338 17.1597 5.01156C 17.1597 6.17973 14.2317 7.87403 9.64455 7.87403C 5.0574 7.87403 2.12943 6.17973 2.12943 5.01156C 2.12943 3.84338 5.0574 2.14909 9.64455 2.14909Z"/>
        <path id="path1_fill" d="M 18.2888 0.0665259C 17.7387 -0.138574 17.1265 0.146781 16.9225 0.699658C 16.4699 1.93917 13.4887 3.27678 9.46057 3.27678C 5.53887 3.27678 2.60203 2.01051 2.03419 0.788832C 1.78575 0.25379 1.14692 0.021938 0.614566 0.271624C 0.082208 0.52131 -0.148482 1.16336 0.0999516 1.6984C 1.13805 3.92774 4.90004 5.41695 9.46057 5.41695C 11.6344 5.41695 13.7461 5.06025 15.423 4.40036C 17.2685 3.67806 18.484 2.65256 18.9277 1.43088C 19.1229 0.886923 18.8389 0.271625 18.2888 0.0665259Z"/>
        <path id="path2_fill" d="M 18.2888 0.0665256C 17.7387 -0.138574 17.1265 0.146781 16.9225 0.699658C 16.4699 1.93917 13.4887 3.27678 9.46057 3.27678C 5.53887 3.27678 2.60203 2.01051 2.03419 0.788831C 1.78575 0.253789 1.14692 0.0219391 0.614566 0.271625C 0.082208 0.521312 -0.148482 1.16336 0.0999516 1.6984C 1.13805 3.92775 4.90004 5.41694 9.46057 5.41694C 11.6344 5.41694 13.7461 5.06025 15.423 4.40036C 17.2685 3.67806 18.484 2.65256 18.9277 1.43088C 19.1229 0.886924 18.8389 0.271625 18.2888 0.0665256Z"/>
        <path id="path3_fill" d="M 18.2888 0.0665248C 17.7387 -0.138575 17.1265 0.146782 16.9225 0.699658C 16.4699 1.93917 13.4887 3.27678 9.46057 3.27678C 5.53887 3.27678 2.60203 2.01051 2.03419 0.788832C 1.78575 0.25379 1.14692 0.0219396 0.614566 0.271626C 0.082208 0.521312 -0.148482 1.16336 0.0999516 1.6984C 1.13805 3.92775 4.90004 5.41694 9.46057 5.41694C 11.6344 5.41694 13.7461 5.06025 15.423 4.40037C 17.2685 3.67806 18.484 2.65256 18.9277 1.43088C 19.1229 0.886924 18.8389 0.271624 18.2888 0.0665248Z"/>
        <path id="path4_fill" d="M 18.2888 0.0665259C 17.7387 -0.138574 17.1265 0.146783 16.9225 0.699659C 16.4699 1.93917 13.4887 3.27678 9.46057 3.27678C 5.53887 3.27678 2.60203 2.01051 2.03419 0.788833C 1.78575 0.253791 1.14692 0.021938 0.614566 0.271624C 0.082208 0.52131 -0.148482 1.16336 0.0999516 1.6984C 1.13805 3.92774 4.90004 5.41695 9.46057 5.41695C 11.6344 5.41695 13.7461 5.06025 15.423 4.40037C 17.2685 3.67806 18.484 2.65256 18.9277 1.43088C 19.1229 0.878005 18.8389 0.262708 18.2888 0.0665259Z"/>
        <path id="path5_fill" d="M 18.2888 0.0665264C 17.7387 -0.138573 17.1265 0.146781 16.9225 0.699657C 16.4699 1.93917 13.4887 3.27678 9.46057 3.27678C 5.53887 3.27678 2.60203 2.01051 2.03419 0.788831C 1.78575 0.253789 1.14692 0.0219385 0.614566 0.271625C 0.082208 0.521311 -0.148482 1.16336 0.0999516 1.6984C 1.13805 3.92774 4.90004 5.41695 9.46057 5.41695C 11.6344 5.41695 13.7461 5.06025 15.423 4.40036C 17.2685 3.67806 18.484 2.65256 18.9277 1.43088C 19.1229 0.886923 18.8389 0.271626 18.2888 0.0665264Z"/>
        <path id="path6_fill" d="M 18.2888 0.0665248C 17.7387 -0.138575 17.1265 0.146782 16.9225 0.699658C 16.4699 1.93917 13.4887 3.27678 9.46057 3.27678C 5.53887 3.27678 2.60203 2.01051 2.03418 0.788832C 1.78575 0.25379 1.14692 0.0219396 0.614565 0.271626C 0.0822069 0.521312 -0.148481 1.16336 0.0999522 1.6984C 1.13805 3.92775 4.90004 5.41694 9.46057 5.41694C 11.6344 5.41694 13.7461 5.06025 15.423 4.40037C 17.2685 3.67806 18.484 2.65256 18.9277 1.43088C 19.1229 0.886924 18.8389 0.271624 18.2888 0.0665248Z"/>
        <path id="path7_fill" d="M 18.2888 0.0665259C 17.7387 -0.138574 17.1265 0.146783 16.9225 0.699659C 16.4699 1.93917 13.4887 3.27678 9.46057 3.27678C 5.53887 3.27678 2.60203 2.01051 2.03418 0.788833C 1.78575 0.253791 1.14692 0.021938 0.614565 0.271624C 0.0822069 0.52131 -0.148481 1.16336 0.0999522 1.6984C 1.13805 3.92774 4.90004 5.41695 9.46057 5.41695C 11.6344 5.41695 13.7461 5.06025 15.423 4.40037C 17.2685 3.67806 18.484 2.65256 18.9277 1.43088C 19.1229 0.878005 18.8389 0.262708 18.2888 0.0665259Z"/>
        <path id="path8_fill" d="M 18.2888 0.0665264C 17.7387 -0.138573 17.1265 0.146781 16.9225 0.699657C 16.4699 1.93917 13.4887 3.27678 9.46057 3.27678C 5.53887 3.27678 2.60203 2.01051 2.03418 0.788831C 1.78575 0.253789 1.14692 0.0219385 0.614565 0.271625C 0.0822069 0.521311 -0.148481 1.16336 0.0999522 1.6984C 1.13805 3.92774 4.90004 5.41695 9.46057 5.41695C 11.6344 5.41695 13.7461 5.06025 15.423 4.40036C 17.2685 3.67806 18.484 2.65256 18.9277 1.43088C 19.1229 0.886923 18.8389 0.271626 18.2888 0.0665264Z"/>
        <path id="path9_fill" d="M 9.64455 5.44273e-07C 4.14352 5.44273e-07 0 2.14909 0 5.00264C 0 7.8562 4.14352 10.0053 9.64455 10.0053C 15.1456 10.0053 19.2891 7.8562 19.2891 5.00264C 19.2891 2.14909 15.1456 5.44273e-07 9.64455 5.44273e-07ZM 9.64455 7.86512C 5.0574 7.86512 2.12943 6.17082 2.12943 5.00264C 2.12943 3.83447 5.0574 2.14017 9.64455 2.14017C 14.2317 2.14017 17.1597 3.83447 17.1597 5.00264C 17.1597 6.17082 14.2317 7.86512 9.64455 7.86512Z"/>
    </defs>
</svg>
