<svg width="34" height="50" viewBox="0 0 34 50" version="1.1" xmlns="http://www.w3.org/2000/svg" xmlns:xlink="http://www.w3.org/1999/xlink">
    <title>id-card</title>
    <desc>Created using Figma</desc>
    <g id="Canvas" transform="translate(157 2864)">
        <g id="id-card">
            <g id="Group">
                <g id="Vector">
                    <use xlink:href="#path0_fill" transform="translate(-157 -2864)" fill="#2B8BBB"/>
                </g>
                <g id="Vector">
                    <use xlink:href="#path1_fill" transform="translate(-151.05 -2844.83)" fill="#2B8BBB"/>
                </g>
                <g id="Vector">
                    <use xlink:href="#path2_fill" transform="translate(-127.93 -2849)" fill="#2B8BBB"/>
                </g>
                <g id="Vector">
                    <use xlink:href="#path2_fill" transform="translate(-144.08 -2849)" fill="#2B8BBB"/>
                </g>
                <g id="Vector">
                    <use xlink:href="#path3_fill" transform="translate(-150.54 -2849)" fill="#2B8BBB"/>
                </g>
                <g id="Vector">
                    <use xlink:href="#path4_fill" transform="translate(-153.77 -2849)" fill="#2B8BBB"/>
                </g>
                <g id="Vector">
                    <use xlink:href="#path5_fill" transform="translate(-147.31 -2849)" fill="#2B8BBB"/>
                </g>
                <g id="Vector">
                    <use xlink:href="#path6_fill" transform="translate(-140.85 -2849)" fill="#2B8BBB"/>
                </g>
                <g id="Vector">
                    <use xlink:href="#path7_fill" transform="translate(-131.16 -2849)" fill="#2B8BBB"/>
                </g>
                <g id="Vector">
                    <use xlink:href="#path8_fill" transform="translate(-134.39 -2849)" fill="#2B8BBB"/>
                </g>
                <g id="Vector">
                    <use xlink:href="#path9_fill" transform="translate(-137.62 -2849)" fill="#2B8BBB"/>
                </g>
                <g id="Vector">
                    <use xlink:href="#path4_fill" transform="translate(-153.77 -2819.83)" fill="#2B8BBB"/>
                </g>
                <g id="Vector">
                    <use xlink:href="#path5_fill" transform="translate(-147.31 -2819.83)" fill="#2B8BBB"/>
                </g>
                <g id="Vector">
                    <use xlink:href="#path7_fill" transform="translate(-131.16 -2819.83)" fill="#2B8BBB"/>
                </g>
                <g id="Vector">
                    <use xlink:href="#path8_fill" transform="translate(-134.39 -2819.83)" fill="#2B8BBB"/>
                </g>
                <g id="Vector">
                    <use xlink:href="#path2_fill" transform="translate(-127.93 -2819.83)" fill="#2B8BBB"/>
                </g>
                <g id="Vector">
                    <use xlink:href="#path6_fill" transform="translate(-140.85 -2819.83)" fill="#2B8BBB"/>
                </g>
                <g id="Vector">
                    <use xlink:href="#path2_fill" transform="translate(-144.08 -2819.83)" fill="#2B8BBB"/>
                </g>
                <g id="Vector">
                    <use xlink:href="#path9_fill" transform="translate(-137.62 -2819.83)" fill="#2B8BBB"/>
                </g>
                <g id="Vector">
                    <use xlink:href="#path3_fill" transform="translate(-150.54 -2819.83)" fill="#2B8BBB"/>
                </g>
            </g>
        </g>
    </g>
    <defs>
        <path id="path0_fill" d="M 31.45 3.33253L 21.25 3.33253L 22.78 1.3325C 23.0622 0.964989 22.9857 0.44248 22.61 0.166642C 22.2334 -0.109196 21.7014 -0.0350284 21.42 0.333311L 19.125 3.33253L 14.9753 3.33253L 13.5099 0.45998C 13.2999 0.0483063 12.7908 -0.116696 12.3692 0.0874737C 11.9493 0.293311 11.7793 0.794152 11.9893 1.20583L 13.0747 3.33253L 2.55 3.33253C 1.1441 3.33253 0 4.45422 0 5.83257L 0 47.5C 0 48.8783 1.1441 50 2.55 50L 31.45 50C 32.8559 50 34 48.8783 34 47.5L 34 5.83257C 34 4.45422 32.8559 3.33253 31.45 3.33253ZM 32.3 47.5C 32.3 47.96 31.9192 48.3333 31.45 48.3333L 2.55 48.3333C 2.08165 48.3333 1.7 47.96 1.7 47.5L 1.7 5.83257C 1.7 5.37256 2.08165 4.99923 2.55 4.99923L 13.9247 4.99923L 14.7747 6.66592C 14.0607 7.2776 13.6 8.16511 13.6 9.16596C 13.6 11.0043 15.1249 12.4994 17 12.4994C 18.8751 12.4994 20.4 11.0043 20.4 9.16596C 20.4 7.3276 18.8751 5.83257 17 5.83257C 16.7561 5.83257 16.5189 5.86007 16.2894 5.90841L 15.8253 4.99923L 31.45 4.99923C 31.9192 4.99923 32.3 5.37256 32.3 5.83257L 32.3 47.5ZM 15.5822 8.24928L 16.2393 9.53847C 16.3888 9.83097 16.6889 9.99931 17.0009 9.99931C 17.1283 9.99931 17.2584 9.97098 17.38 9.91181C 17.7999 9.70597 17.9699 9.20513 17.7599 8.79346L 17.1054 7.5101C 17.9928 7.56427 18.7 8.28261 18.7 9.16596C 18.7 10.0851 17.9375 10.8327 17 10.8327C 16.0625 10.8327 15.3 10.0851 15.3 9.16596C 15.3 8.82762 15.4046 8.51262 15.5822 8.24928Z"/>
        <path id="path1_fill" d="M 11.05 0C 4.9572 0 0 4.86008 0 10.8335C 0 12.8636 0.583101 14.7578 1.5776 16.3836L 1.51215 16.4053L 2.2219 17.3303C 2.2406 17.3545 2.26185 17.3745 2.28055 17.3986C 2.49985 17.6795 2.7319 17.9486 2.97755 18.207C 3.02175 18.2545 3.06425 18.3036 3.11015 18.3495C 3.3694 18.6128 3.64055 18.8645 3.92615 19.1012C 3.95675 19.127 3.9848 19.1553 4.0154 19.1812C 4.30695 19.417 4.61125 19.6378 4.9266 19.8445C 5.0881 19.9503 5.2564 20.0428 5.423 20.1403C 5.58535 20.2353 5.746 20.3303 5.9126 20.417C 6.0996 20.5137 6.29085 20.6012 6.4838 20.687C 6.64615 20.7595 6.8085 20.8295 6.9751 20.8945C 7.16805 20.9695 7.361 21.0404 7.5582 21.1045C 7.74435 21.1654 7.93305 21.2179 8.1226 21.2695C 8.3062 21.3187 8.4881 21.3695 8.6751 21.4087C 8.90885 21.4595 9.14685 21.4954 9.3857 21.5312C 9.537 21.5537 9.6866 21.5829 9.8396 21.5995C 10.2374 21.6412 10.6403 21.667 11.05 21.667C 11.4597 21.667 11.8626 21.6412 12.2604 21.5987C 12.4134 21.582 12.563 21.5529 12.7143 21.5304C 12.9532 21.4945 13.1911 21.4587 13.4249 21.4079C 13.611 21.3679 13.7938 21.3179 13.9774 21.2687C 14.1678 21.217 14.3565 21.1645 14.5418 21.1037C 14.739 21.0395 14.9328 20.9687 15.1249 20.8937C 15.2906 20.8287 15.4539 20.7595 15.6162 20.6862C 15.8092 20.6004 16.0004 20.5129 16.1874 20.4162C 16.3548 20.3295 16.5155 20.2337 16.677 20.1395C 16.8436 20.042 17.0119 19.9495 17.1734 19.8437C 17.4887 19.637 17.7931 19.417 18.0846 19.1803C 18.1152 19.1553 18.1433 19.1262 18.1739 19.1003C 18.4595 18.8637 18.7297 18.612 18.9899 18.3486C 19.0349 18.3028 19.0774 18.2528 19.1225 18.2061C 19.3681 17.9478 19.6002 17.6786 19.8195 17.3978C 19.8382 17.3736 19.8603 17.3536 19.8781 17.3295L 20.5879 16.4044L 20.5224 16.3828C 21.5169 14.7578 22.1 12.8636 22.1 10.8335C 22.1 4.86008 17.1428 0 11.05 0ZM 8.47875 14.6761C 7.93645 14.0544 7.65 13.3102 7.65 12.5227L 7.65 9.16682C 7.65 7.32846 9.1749 5.83343 11.05 5.83343C 12.9251 5.83343 14.45 7.32846 14.45 9.16682L 14.45 12.5227C 14.45 13.3094 14.1635 14.0544 13.6204 14.6761L 12.7993 15.6178L 17.7344 17.2303C 17.5474 17.4195 17.351 17.5945 17.1504 17.7653C 17.1096 17.8003 17.0723 17.8378 17.0306 17.872C 16.8972 17.982 16.7552 18.0803 16.6158 18.182C 16.5019 18.2653 16.3931 18.3536 16.275 18.432C 16.2614 18.4411 16.2469 18.4478 16.2333 18.457C 14.75 19.4303 12.9668 20.0003 11.05 20.0003C 9.13325 20.0003 7.34995 19.4303 5.865 18.4562C 5.8514 18.447 5.83695 18.4403 5.82335 18.4312C 5.70605 18.3528 5.5964 18.2645 5.4825 18.1811C 5.3431 18.0786 5.20115 17.9811 5.0677 17.8711C 5.02605 17.837 4.98865 17.7995 4.94785 17.7645C 4.74725 17.5936 4.5509 17.4186 4.3639 17.2295L 9.299 15.6169L 8.47875 14.6761ZM 18.87 15.8436L 15.589 14.7719C 15.9554 14.0736 16.15 13.3027 16.15 12.5227L 16.15 9.16682C 16.15 6.40928 13.8627 4.16674 11.05 4.16674C 8.23735 4.16674 5.95 6.40928 5.95 9.16682L 5.95 12.5227C 5.95 13.3036 6.14465 14.0736 6.511 14.7719L 3.23 15.8436C 2.26525 14.4019 1.7 12.6827 1.7 10.8335C 1.7 5.77927 5.89475 1.6667 11.05 1.6667C 16.2052 1.6667 20.4 5.77927 20.4 10.8335C 20.4 12.6827 19.8339 14.4019 18.87 15.8436Z"/>
        <path id="path2_fill" d="M 0.850001 1.6667C 1.31944 1.6667 1.7 1.29359 1.7 0.833348C 1.7 0.373102 1.31944 0 0.850001 0C 0.380559 0 0 0.373102 0 0.833348C 0 1.29359 0.380559 1.6667 0.850001 1.6667Z"/>
        <path id="path3_fill" d="M 0.85 1.6667C 1.31944 1.6667 1.7 1.29359 1.7 0.833348C 1.7 0.373102 1.31944 0 0.85 0C 0.380558 0 0 0.373102 0 0.833348C 0 1.29359 0.380558 1.6667 0.85 1.6667Z"/>
        <path id="path4_fill" d="M 0.85 1.6667C 1.31944 1.6667 1.7 1.29359 1.7 0.833348C 1.7 0.373102 1.31944 0 0.85 0C 0.380558 0 0 0.373102 0 0.833348C 0 1.29359 0.380558 1.6667 0.85 1.6667Z"/>
        <path id="path5_fill" d="M 0.85 1.6667C 1.31944 1.6667 1.7 1.29359 1.7 0.833348C 1.7 0.373102 1.31944 0 0.85 0C 0.380558 0 0 0.373102 0 0.833348C 0 1.29359 0.380558 1.6667 0.85 1.6667Z"/>
        <path id="path6_fill" d="M 0.85 1.6667C 1.31944 1.6667 1.7 1.29359 1.7 0.833348C 1.7 0.373102 1.31944 0 0.85 0C 0.380558 0 0 0.373102 0 0.833348C 0 1.29359 0.380558 1.6667 0.85 1.6667Z"/>
        <path id="path7_fill" d="M 0.850001 1.6667C 1.31944 1.6667 1.7 1.29359 1.7 0.833348C 1.7 0.373102 1.31944 0 0.850001 0C 0.380559 0 0 0.373102 0 0.833348C 0 1.29359 0.380559 1.6667 0.850001 1.6667Z"/>
        <path id="path8_fill" d="M 0.849999 1.6667C 1.31944 1.6667 1.7 1.29359 1.7 0.833348C 1.7 0.373102 1.31944 0 0.849999 0C 0.380557 0 0 0.373102 0 0.833348C 0 1.29359 0.380557 1.6667 0.849999 1.6667Z"/>
        <path id="path9_fill" d="M 0.849999 1.6667C 1.31944 1.6667 1.7 1.29359 1.7 0.833348C 1.7 0.373102 1.31944 0 0.849999 0C 0.380557 0 0 0.373102 0 0.833348C 0 1.29359 0.380557 1.6667 0.849999 1.6667Z"/>
    </defs>
</svg>
