<svg width="46" height="43" viewBox="0 0 46 43" version="1.1" xmlns="http://www.w3.org/2000/svg" xmlns:xlink="http://www.w3.org/1999/xlink">
    <title>Group</title>
    <desc>Created using Figma</desc>
    <g id="Canvas" transform="translate(160 2685)">
        <g id="Group">
            <g id="Group">
                <g id="Vector">
                    <use xlink:href="#path0_fill" transform="translate(-160 -2685)" fill="#2B8BBB"/>
                </g>
            </g>
        </g>
    </g>
    <defs>
        <path id="path0_fill" d="M 43.7 20.7321L 43.7 3.83929C 43.7 1.7223 41.9804 0 39.8667 0L 6.13333 0C 4.01963 0 2.3 1.7223 2.3 3.83929L 2.3 15.3571C 1.03193 15.3571 0 16.3907 0 17.6607L 0 40.6964C 0 41.9665 1.03193 43 2.3 43L 19.1667 43C 20.4347 43 21.4667 41.9665 21.4667 40.6964L 27.8921 40.6964C 28.6151 40.6964 29.2813 40.3662 29.7198 39.7911C 30.1584 39.216 30.301 38.485 30.1108 37.787L 28.6036 32.25L 32.9667 32.25L 32.9667 40.6964C 32.9667 41.9665 33.9986 43 35.2667 43L 43.7 43C 44.9681 43 46 41.9665 46 40.6964L 46 23.0357C 46 21.7657 44.9681 20.7321 43.7 20.7321ZM 19.9333 40.6964C 19.9333 41.1195 19.5891 41.4643 19.1667 41.4643L 2.3 41.4643C 1.87757 41.4643 1.53333 41.1195 1.53333 40.6964L 1.53333 39.1607L 19.9333 39.1607L 19.9333 40.6964ZM 19.9333 37.625L 1.53333 37.625L 1.53333 20.7321L 19.9333 20.7321L 19.9333 37.625ZM 19.9333 19.1964L 1.53333 19.1964L 1.53333 17.6607C 1.53333 17.2376 1.87757 16.8929 2.3 16.8929L 19.1667 16.8929C 19.5891 16.8929 19.9333 17.2376 19.9333 17.6607L 19.9333 19.1964ZM 28.6319 38.1909C 28.6956 38.4236 28.648 38.667 28.5016 38.8589C 28.3552 39.0509 28.1336 39.1607 27.8921 39.1607L 21.4667 39.1607L 21.4667 37.625L 28.4778 37.625L 28.6319 38.1909ZM 21.4667 36.0893L 21.4667 32.25L 27.0143 32.25L 28.06 36.0893L 21.4667 36.0893ZM 32.9667 30.7143L 21.4667 30.7143L 21.4667 26.1071L 32.9667 26.1071L 32.9667 30.7143ZM 32.9667 23.0357L 32.9667 24.5714L 21.4667 24.5714L 21.4667 17.6607C 21.4667 16.3907 20.4347 15.3571 19.1667 15.3571L 3.83333 15.3571L 3.83333 3.83929C 3.83333 2.56925 4.86527 1.53571 6.13333 1.53571L 39.8667 1.53571C 41.1347 1.53571 42.1667 2.56925 42.1667 3.83929L 42.1667 20.7321L 35.2667 20.7321C 33.9986 20.7321 32.9667 21.7657 32.9667 23.0357ZM 44.4667 40.6964C 44.4667 41.1195 44.1224 41.4643 43.7 41.4643L 35.2667 41.4643C 34.8442 41.4643 34.5 41.1195 34.5 40.6964L 34.5 39.1607L 44.4667 39.1607L 44.4667 40.6964ZM 44.4667 37.625L 34.5 37.625L 34.5 26.1071L 44.4667 26.1071L 44.4667 37.625ZM 44.4667 24.5714L 34.5 24.5714L 34.5 23.0357C 34.5 22.6126 34.8442 22.2679 35.2667 22.2679L 43.7 22.2679C 44.1224 22.2679 44.4667 22.6126 44.4667 23.0357L 44.4667 24.5714Z"/>
    </defs>
</svg>
