<svg width="46" height="46" viewBox="0 0 46 46" version="1.1" xmlns="http://www.w3.org/2000/svg" xmlns:xlink="http://www.w3.org/1999/xlink">
    <title>column</title>
    <desc>Created using Figma</desc>
    <g id="Canvas" transform="translate(-265 2685)">
        <g id="column">
            <g id="Group">
                <g id="Group">
                    <g id="Vector">
                        <use xlink:href="#path0_fill" transform="translate(265 -2685)" fill="#2B8BBB"/>
                    </g>
                </g>
            </g>
        </g>
    </g>
    <defs>
        <path id="path0_fill" d="M 45.168 42.2429L 43.2859 40.3512C 42.9394 40.0031 42.3778 40.003 42.031 40.3512C 41.6846 40.6994 41.6846 41.264 42.031 41.6124L 42.3986 41.9818L 39.9967 41.9818L 39.9967 31.039C 41.0294 30.6709 41.7712 29.6798 41.7712 28.5172C 41.7712 27.3546 41.0294 26.3635 39.9967 25.9954L 39.9967 8.87207C 41.0294 8.50396 41.7712 7.51279 41.7712 6.35023C 41.7712 4.87512 40.5772 3.67502 39.1095 3.67502C 37.6417 3.67502 36.4477 4.87512 36.4477 6.35023C 36.4477 7.2063 36.8503 7.96918 37.4748 8.45919L 31.793 25.5902C 31.4005 25.5973 31.0283 25.6895 30.6946 25.8504L 26.9751 22.1122C 27.1417 21.7629 27.2352 21.3721 27.2352 20.9596C 27.2352 19.4844 26.0411 18.2843 24.5734 18.2843C 23.4168 18.2843 22.4305 19.0299 22.0642 20.0678L 12.5466 20.0678C 12.1803 19.0299 11.1941 18.2843 10.0374 18.2843C 8.56969 18.2843 7.37561 19.4844 7.37561 20.9596C 7.37561 22.122 8.11745 23.1133 9.15014 23.4814L 9.15014 33.047C 8.11745 33.4151 7.37561 34.4062 7.37561 35.5688C 7.37561 36.7313 8.11745 37.7225 9.15014 38.0906L 9.15014 41.9817L 3.65665 41.9817L 3.65665 36.4605L 4.54392 36.4605C 5.03386 36.4605 5.43118 36.0612 5.43118 35.5688C 5.43118 35.0764 5.03386 34.6771 4.54392 34.6771L 3.65665 34.6771L 3.65665 29.1559L 4.54392 29.1559C 5.03386 29.1559 5.43118 28.7565 5.43118 28.2641C 5.43118 27.7717 5.03386 27.3724 4.54392 27.3724L 3.65665 27.3724L 3.65665 21.8513L 4.54392 21.8513C 5.03386 21.8513 5.43118 21.452 5.43118 20.9596C 5.43118 20.4671 5.03386 20.0678 4.54392 20.0678L 3.65665 20.0678L 3.65665 14.5466L 4.54392 14.5466C 5.03386 14.5466 5.43118 14.1473 5.43118 13.6549C 5.43118 13.1625 5.03386 12.7632 4.54392 12.7632L 3.65665 12.7632L 3.65665 7.24197L 4.54392 7.24197C 5.03386 7.24197 5.43118 6.84265 5.43118 6.35023C 5.43118 5.85782 5.03386 5.4585 4.54392 5.4585L 3.65665 5.4585L 3.65665 3.04448L 4.02425 3.41392C 4.37081 3.76206 4.93245 3.76206 5.2791 3.41392C 5.62558 3.0657 5.62558 2.50105 5.2791 2.15274L 3.39677 0.2611C 3.05021 -0.0870335 2.48857 -0.0870335 2.14192 0.2611L 0.259857 2.15274C -0.086619 2.50096 -0.086619 3.06561 0.259857 3.41392C 0.433139 3.58799 0.66019 3.67511 0.887241 3.67511C 1.11429 3.67511 1.34134 3.58799 1.51462 3.41392L 1.88213 3.04457L 1.88213 42.8735C 1.88213 43.366 2.27944 43.7653 2.76939 43.7653L 42.3985 43.7653L 42.031 44.1346C 41.6846 44.4829 41.6846 45.0475 42.031 45.3958C 42.2043 45.5699 42.4314 45.657 42.6584 45.657C 42.8855 45.657 43.1125 45.5699 43.2858 45.3958L 45.1679 43.5042C 45.5145 43.1558 45.5145 42.5911 45.168 42.2429ZM 31.8414 27.3724C 32.3306 27.3724 32.7286 27.7724 32.7286 28.2641C 32.7286 28.7558 32.3306 29.1559 31.8414 29.1559C 31.3521 29.1559 30.9541 28.7558 30.9541 28.2641C 30.9541 27.7724 31.3522 27.3724 31.8414 27.3724ZM 24.5733 20.0678C 25.0626 20.0678 25.4606 20.4679 25.4606 20.9596C 25.4606 21.4513 25.0626 21.8513 24.5733 21.8513C 24.0841 21.8513 23.6861 21.4513 23.6861 20.9596C 23.6861 20.4679 24.0842 20.0678 24.5733 20.0678ZM 12.5466 21.8513L 22.0642 21.8513C 22.4304 22.8892 23.4166 23.6348 24.5733 23.6348C 24.9838 23.6348 25.3727 23.5408 25.7202 23.3733L 29.4397 27.1115C 29.2731 27.4607 29.1796 27.8516 29.1796 28.2641C 29.1796 29.7392 30.3736 30.9393 31.8414 30.9393C 33.3091 30.9393 34.5031 29.7392 34.5031 28.2641C 34.5031 27.4081 34.1005 26.6452 33.476 26.1552L 38.2221 11.8452L 38.2221 25.9954C 37.1894 26.3635 36.4476 27.3546 36.4476 28.5172C 36.4476 28.913 36.5342 29.2885 36.6883 29.6268L 33.0299 33.1762C 32.6719 32.9958 32.2684 32.8936 31.8414 32.8936C 31.125 32.8936 30.4743 33.18 29.9954 33.6441L 19.9462 28.5942C 19.9595 28.4859 19.9672 28.3759 19.9672 28.264C 19.9672 26.7889 18.7731 25.5888 17.3054 25.5888C 15.8377 25.5888 14.6436 26.7889 14.6436 28.264C 14.6436 28.6766 14.7371 29.0674 14.9038 29.4167L 11.1843 33.1549C 11.1001 33.1144 11.0134 33.0783 10.9247 33.0467L 10.9247 23.4814C 11.6796 23.2123 12.2788 22.6101 12.5466 21.8513ZM 32.7286 35.5688C 32.7286 36.0605 32.3306 36.4605 31.8414 36.4605C 31.3521 36.4605 30.9541 36.0605 30.9541 35.5688C 30.9541 35.0771 31.3521 34.6771 31.8414 34.6771C 32.3306 34.6771 32.7286 35.0771 32.7286 35.5688ZM 18.1927 28.2641C 18.1927 28.7558 17.7947 29.1559 17.3054 29.1559C 16.8162 29.1559 16.4182 28.7558 16.4182 28.2641C 16.4182 27.7724 16.8162 27.3724 17.3054 27.3724C 17.7947 27.3724 18.1927 27.7724 18.1927 28.2641ZM 10.0374 20.0678C 10.5266 20.0678 10.9247 20.4679 10.9247 20.9596C 10.9247 21.4513 10.5266 21.8513 10.0374 21.8513C 9.54817 21.8513 9.15014 21.4513 9.15014 20.9596C 9.15014 20.4679 9.54825 20.0678 10.0374 20.0678ZM 10.0374 36.4605C 9.54817 36.4605 9.15014 36.0605 9.15014 35.5688C 9.15014 35.0771 9.54817 34.6771 10.0374 34.6771C 10.5266 34.6771 10.9247 35.0771 10.9247 35.5688C 10.9247 36.0605 10.5266 36.4605 10.0374 36.4605ZM 32.7286 41.9817L 32.7286 41.09C 32.7286 40.5976 32.3313 40.1982 31.8414 40.1982C 31.3514 40.1982 30.9541 40.5976 30.9541 41.09L 30.9541 41.9817L 25.4606 41.9817L 25.4606 41.09C 25.4606 40.5976 25.0633 40.1982 24.5733 40.1982C 24.0834 40.1982 23.6861 40.5976 23.6861 41.09L 23.6861 41.9817L 18.1927 41.9817L 18.1927 41.09C 18.1927 40.5976 17.7954 40.1982 17.3054 40.1982C 16.8155 40.1982 16.4182 40.5976 16.4182 41.09L 16.4182 41.9817L 10.9247 41.9817L 10.9247 38.0906C 11.9574 37.7225 12.6992 36.7313 12.6992 35.5688C 12.6992 35.1563 12.6057 34.7654 12.439 34.4161L 16.1585 30.6779C 16.5061 30.8453 16.895 30.9393 17.3054 30.9393C 18.0218 30.9393 18.6724 30.6529 19.1514 30.1888L 29.2005 35.2388C 29.1872 35.347 29.1795 35.457 29.1795 35.5688C 29.1795 37.0439 30.3736 38.244 31.8413 38.244C 33.309 38.244 34.5031 37.0439 34.5031 35.5688C 34.5031 35.173 34.4165 34.7975 34.2623 34.4592L 37.9207 30.9098C 38.0179 30.9588 38.1185 31.0021 38.222 31.039L 38.222 41.9817L 32.7286 41.9817ZM 39.1094 29.4089C 38.6201 29.4089 38.2221 29.0089 38.2221 28.5172C 38.2221 28.0255 38.6201 27.6255 39.1094 27.6255C 39.5986 27.6255 39.9966 28.0255 39.9966 28.5172C 39.9966 29.0089 39.5986 29.4089 39.1094 29.4089ZM 39.1094 7.24197C 38.6201 7.24197 38.2221 6.84194 38.2221 6.35023C 38.2221 5.85853 38.6202 5.4585 39.1094 5.4585C 39.5986 5.4585 39.9966 5.85853 39.9966 6.35023C 39.9966 6.84194 39.5986 7.24197 39.1094 7.24197Z"/>
    </defs>
</svg>
