<svg width="40" height="46" viewBox="0 0 40 46" version="1.1" xmlns="http://www.w3.org/2000/svg" xmlns:xlink="http://www.w3.org/1999/xlink">
    <title>shield</title>
    <desc>Created using Figma</desc>
    <g id="Canvas" transform="translate(-265 3043)">
        <g id="shield">
            <g id="Group">
                <g id="Group">
                    <g id="Vector">
                        <use xlink:href="#path0_fill" transform="translate(265 -3043)" fill="#2B8BBB"/>
                    </g>
                </g>
            </g>
            <g id="Group">
                <g id="Group">
                    <g id="Vector">
                        <use xlink:href="#path1_fill" transform="translate(274.464 -3031.59)" fill="#2B8BBB"/>
                    </g>
                </g>
            </g>
            <g id="Group">
                <g id="Group">
                    <g id="Vector">
                        <use xlink:href="#path2_fill" transform="translate(278.249 -3025.88)" fill="#2B8BBB"/>
                    </g>
                </g>
            </g>
        </g>
    </g>
    <defs>
        <path id="path0_fill" d="M 39.0736 5.74704L 20.1454 0.0399275C 19.9675 -0.0133092 19.7801 -0.0133092 19.6021 0.0399275L 0.673876 5.74704C 0.27443 5.86689 0 6.23785 0 6.65831L 0 27.5844C 0 35.9967 12.7614 43.4787 19.5946 45.6151C 19.6854 45.6436 19.7801 45.6569 19.8747 45.6569C 19.9693 45.6569 20.0639 45.6436 20.1548 45.6151C 26.988 43.4768 39.7494 35.9966 39.7494 27.5843L 39.7494 6.65831C 39.7494 6.23785 39.4749 5.86876 39.0736 5.74704ZM 37.8566 27.5843C 37.8566 34.2635 27.3268 41.2871 19.8747 43.7088C 12.4227 41.2871 1.8928 34.2635 1.8928 27.5843L 1.8928 7.36599L 19.8747 1.94423L 37.8566 7.36599L 37.8566 27.5843Z"/>
        <path id="path1_fill" d="M 10.4105 0C 4.66957 0 6.60682e-07 4.69312 6.60682e-07 10.463C 6.60682e-07 16.2329 4.66957 20.9261 10.4105 20.9261C 16.1515 20.9261 20.821 16.233 20.821 10.4631C 20.821 4.69321 16.1515 0 10.4105 0ZM 10.4105 19.0237C 5.71442 19.0237 1.8928 15.1828 1.8928 10.463C 1.8928 5.74323 5.71442 1.90234 10.4105 1.90234C 15.1066 1.90234 18.9282 5.74323 18.9282 10.463C 18.9282 15.1828 15.1066 19.0237 10.4105 19.0237Z"/>
        <path id="path2_fill" d="M 12.972 0.278222C 12.6029 -0.0927405 12.0029 -0.0927405 11.6338 0.278222L 4.73257 7.21424L 1.61508 4.08291C 1.24598 3.71194 0.645927 3.71194 0.276826 4.08291C -0.0922755 4.45387 -0.0922755 5.05695 0.276826 5.42791L 4.06251 9.23268C 4.24804 9.41718 4.49026 9.51046 4.73257 9.51046C 4.97488 9.51046 5.2171 9.41727 5.40077 9.23268L 12.972 1.62323C 13.3411 1.25227 13.3411 0.649184 12.972 0.278222Z"/>
    </defs>
</svg>
