<svg width="104" height="104" viewBox="0 0 104 104" version="1.1" xmlns="http://www.w3.org/2000/svg" xmlns:xlink="http://www.w3.org/1999/xlink">
    <title>bitcoin</title>
    <desc>Created using Figma</desc>
    <g id="Canvas" transform="translate(132 3675)">
        <g id="bitcoin">
            <g id="Vector">
                <use xlink:href="#path0_fill" transform="translate(-112.422 -3655.42)" fill="#FFFFFF"/>
            </g>
            <g id="Vector">
                <use xlink:href="#path1_fill" transform="translate(-82.7344 -3620.27)" fill="#FFFFFF"/>
            </g>
            <g id="Vector">
                <use xlink:href="#path1_fill" transform="translate(-82.7344 -3631.98)" fill="#FFFFFF"/>
            </g>
            <g id="Vector">
                <use xlink:href="#path2_fill" transform="translate(-124.141 -3661.28)" fill="#FFFFFF"/>
            </g>
            <g id="Vector">
                <use xlink:href="#path3_fill" transform="translate(-105.436 -3675)" fill="#FFFFFF"/>
            </g>
            <g id="Vector">
                <use xlink:href="#path4_fill" transform="translate(-132 -3640.51)" fill="#FFFFFF"/>
            </g>
            <g id="Vector">
                <use xlink:href="#path2_fill" transform="translate(-53.4375 -3602.3)" fill="#FFFFFF"/>
            </g>
        </g>
    </g>
    <defs>
        <path id="path0_fill" d="M 32.6172 0C 14.8475 0 0 14.4568 0 32.2266C 0 49.9963 14.8475 64.8438 32.6172 64.8438C 50.3869 64.8438 64.8438 49.9963 64.8438 32.2266C 64.8438 14.4568 50.3869 0 32.6172 0ZM 38.4766 46.875L 35.5469 46.875L 35.5469 49.8047C 35.5469 53.6666 29.6875 53.6824 29.6875 49.8047L 29.6875 46.875L 20.8984 46.875C 17.0365 46.875 17.0207 41.0156 20.8984 41.0156L 23.8281 41.0156L 23.8281 23.4375L 20.8984 23.4375C 17.0365 23.4375 17.0207 17.5781 20.8984 17.5781L 29.6875 17.5781L 29.6875 14.6484C 29.6875 10.7865 35.5469 10.7707 35.5469 14.6484L 35.5469 17.5781L 38.4766 17.5781C 45.9963 17.5781 50.1297 26.5158 44.9797 32.2266C 50.1297 37.9373 45.9963 46.875 38.4766 46.875Z"/>
        <path id="path1_fill" d="M 8.78906 0L 0 0L 0 5.85938L 8.78906 5.85938C 12.6617 5.85938 12.6617 0 8.78906 0Z"/>
        <path id="path2_fill" d="M 8.78906 0C 3.94258 0 0 3.94258 0 8.78906C 0 13.6355 3.94258 17.5781 8.78906 17.5781C 13.6355 17.5781 17.5781 13.6355 17.5781 8.78906C 17.5781 3.94258 13.6355 0 8.78906 0Z"/>
        <path id="path3_fill" d="M 27.6309 0C 17.8357 0 8.04961 2.91973 -2.38419e-07 8.21895C 1.71602 9.32832 3.1877 10.7732 4.31172 12.4787C 11.173 8.24395 19.4207 5.82031 27.6309 5.82031C 51.8637 5.82031 71.6152 25.5719 71.6152 49.8047C 71.6152 55.2768 70.4943 61.0049 68.5203 66.0168C 70.4082 66.8229 72.0662 68.0367 73.4498 69.5145C 76.0451 63.4391 77.4355 56.5074 77.4355 49.8047C 77.4355 22.3418 55.0938 0 27.6309 0Z"/>
        <path id="path4_fill" d="M 73.1238 57.0357C 66.2625 61.2705 58.4055 63.6941 50.1953 63.6941C 25.9625 63.6941 5.82031 43.552 5.82031 19.3191C 5.82031 13.8475 6.9416 8.50957 8.91562 3.49766C 7.02773 2.6916 5.36934 1.47773 3.98574 -2.86102e-07C 1.39043 6.07539 0 13.007 0 19.7098C 0 47.1727 22.7324 69.5145 50.1953 69.5145C 59.9904 69.5145 69.3859 66.5947 77.4355 61.2955C 75.7195 60.1861 74.2479 58.7412 73.1238 57.0357Z"/>
    </defs>
</svg>
