<svg width="47" height="40" viewBox="0 0 47 40" version="1.1" xmlns="http://www.w3.org/2000/svg" xmlns:xlink="http://www.w3.org/1999/xlink">
    <title>folder</title>
    <desc>Created using Figma</desc>
    <g id="Canvas" transform="translate(-266 2867)">
        <g id="folder">
            <g id="Group">
                <g id="Group">
                    <g id="Vector">
                        <use xlink:href="#path0_fill" transform="translate(266 -2867)" fill="#2B8BBB"/>
                    </g>
                    <g id="Vector">
                        <use xlink:href="#path1_fill" transform="translate(293.611 -2857.38)" fill="#2B8BBB"/>
                    </g>
                    <g id="Vector">
                        <use xlink:href="#path2_fill" transform="translate(296.86 -2854.17)" fill="#2B8BBB"/>
                    </g>
                    <g id="Vector">
                        <use xlink:href="#path2_fill" transform="translate(296.86 -2850.96)" fill="#2B8BBB"/>
                    </g>
                </g>
            </g>
        </g>
    </g>
    <defs>
        <path id="path0_fill" d="M 43.8024 4.81203L 31.9543 4.81203L 28.8885 1.53203C 27.9785 0.558396 26.6871 0 25.3454 0L 3.19762 0C 1.43446 0 0 1.41664 0 3.15789L 0 7.96992L 0 36.8421C 0 38.5834 1.43446 40 3.19762 40L 43.8024 40C 45.5655 40 47 38.5834 47 36.8421L 47 7.96992C 47 6.22867 45.5655 4.81203 43.8024 4.81203ZM 27.7696 2.55198L 29.8821 4.81203L 27.0817 4.81203L 24.0159 1.53203C 24.0068 1.52241 23.9972 1.51338 23.9881 1.50376L 25.3454 1.50376C 26.2634 1.50376 27.147 1.88581 27.7696 2.55198ZM 20.4728 1.50376C 21.3908 1.50376 22.2744 1.88581 22.897 2.55198L 25.0095 4.81203L 21.8343 4.81203L 18.7685 1.53203C 18.7595 1.52241 18.7499 1.51338 18.7407 1.50376L 20.4728 1.50376ZM 3.19762 1.50376L 15.2255 1.50376C 16.1434 1.50376 17.027 1.88581 17.6497 2.55198L 19.7621 4.81203L 3.19762 4.81203C 2.58388 4.81203 2.01014 4.98406 1.52268 5.2813L 1.52268 3.15789C 1.52268 2.24581 2.27407 1.50376 3.19762 1.50376ZM 45.4773 36.8421C 45.4773 37.7542 44.7259 38.4962 43.8024 38.4962L 3.19762 38.4962C 2.27407 38.4962 1.52268 37.7542 1.52268 36.8421L 1.52268 7.96992C 1.52268 7.05784 2.27407 6.31579 3.19762 6.31579L 43.8024 6.31579C 44.7259 6.31579 45.4773 7.05784 45.4773 7.96992L 45.4773 36.8421Z"/>
        <path id="path1_fill" d="M 12.9428 0L 1.57343 0C 0.705812 0 0 0.697043 0 1.55388L 0 9.57393C 0 10.4308 0.705812 11.1278 1.57343 11.1278L 12.9428 11.1278C 13.8104 11.1278 14.5162 10.4308 14.5162 9.57393L 14.5162 1.55388C 14.5162 0.697043 13.8104 0 12.9428 0ZM 12.9935 9.57393C 12.9935 9.6016 12.9708 9.62406 12.9428 9.62406L 1.57343 9.62406C 1.54542 9.62406 1.52268 9.6016 1.52268 9.57393L 1.52268 1.55388C 1.52268 1.52622 1.54542 1.50376 1.57343 1.50376L 12.9428 1.50376C 12.9708 1.50376 12.9935 1.52622 12.9935 1.55388L 12.9935 9.57393Z"/>
        <path id="path2_fill" d="M 7.2581 0L 0.761339 0C 0.340877 0 0 0.336642 0 0.75188C 0 1.16712 0.340877 1.50376 0.761339 1.50376L 7.2581 1.50376C 7.67856 1.50376 8.01944 1.16712 8.01944 0.75188C 8.01944 0.336642 7.67856 0 7.2581 0Z"/>
    </defs>
</svg>
