<svg width="41" height="44" viewBox="0 0 41 44" version="1.1" xmlns="http://www.w3.org/2000/svg" xmlns:xlink="http://www.w3.org/1999/xlink">
    <title>stopwatch</title>
    <desc>Created using Figma</desc>
    <g id="Canvas" transform="translate(-657 2685)">
        <g id="stopwatch">
            <g id="Group">
                <g id="Vector">
                    <use xlink:href="#path0_fill" transform="translate(675.89 -2668.97)" fill="#2B8BBB"/>
                </g>
                <g id="Vector">
                    <use xlink:href="#path1_fill" transform="translate(672.983 -2685)" fill="#2B8BBB"/>
                </g>
                <g id="Vector">
                    <use xlink:href="#path2_fill" transform="translate(667.172 -2674.8)" fill="#2B8BBB"/>
                </g>
                <g id="Vector">
                    <use xlink:href="#path3_fill" transform="translate(663.539 -2669.7)" fill="#2B8BBB"/>
                </g>
                <g id="Vector">
                    <use xlink:href="#path4_fill" transform="translate(659.906 -2664.6)" fill="#2B8BBB"/>
                </g>
                <g id="Vector">
                    <use xlink:href="#path5_fill" transform="translate(657 -2659.5)" fill="#2B8BBB"/>
                </g>
                <g id="Vector">
                    <use xlink:href="#path6_fill" transform="translate(661.359 -2654.39)" fill="#2B8BBB"/>
                </g>
                <g id="Vector">
                    <use xlink:href="#path7_fill" transform="translate(665.718 -2649.29)" fill="#2B8BBB"/>
                </g>
            </g>
        </g>
    </g>
    <defs>
        <path id="path0_fill" d="M 2.79052 11.651C 3.54685 11.592 4.23634 11.205 4.68389 10.5878L 11.4865 1.15542C 11.695 0.866122 11.6638 0.466789 11.4109 0.213198C 11.1581 -0.0396638 10.76 -0.0709983 10.4715 0.137412L 1.0657 6.9625C 0.4525 7.40993 0.0667065 8.10147 0.00785654 8.86006C -0.0509934 9.61864 0.222913 10.3612 0.758375 10.8983C 1.24589 11.3879 1.90341 11.659 2.58708 11.659C 2.65465 11.659 2.72222 11.6561 2.79052 11.651ZM 1.45658 8.97374C 1.48201 8.64072 1.65202 8.33685 1.91939 8.14155L 7.6569 3.97844L 3.50761 9.73159C 3.31145 10.0019 3.00848 10.1717 2.67645 10.198C 2.34587 10.2198 2.02111 10.1047 1.78498 9.86786C 1.55103 9.63249 1.43043 9.30603 1.45658 8.97374Z"/>
        <path id="path1_fill" d="M 21.9719 14.2565C 21.9646 14.2412 21.9646 14.2251 21.9566 14.2098C 21.9479 14.1952 21.9341 14.1872 21.9247 14.1734C 21.1901 12.9098 20.3212 11.7344 19.3345 10.669L 20.8952 9.10449L 21.9225 10.1349L 25.0045 7.04297L 21.9225 3.95179L 18.8398 7.04297L 19.8678 8.07409L 18.3072 9.63863C 17.245 8.64905 16.0738 7.77678 14.8133 7.04006C 14.7995 7.03058 14.7915 7.01674 14.7769 7.00799C 14.7617 6.99925 14.7457 6.99998 14.7304 6.99196C 12.4832 5.6934 9.9585 4.82842 7.26666 4.51144L 7.26666 3.64354L 8.35647 3.64354C 9.35837 3.64354 10.1728 2.82666 10.1728 1.82177C 10.1728 0.816883 9.35765 0 8.35574 0L 1.81686 0C 0.814953 0 0.000498342 0.816883 0.000498342 1.82177C 0.000498342 2.82666 0.814953 3.64354 1.81686 3.64354L 2.90667 3.64354L 2.90667 4.48593C 2.122 4.56973 1.33879 4.69799 0.564297 4.87579C 0.173416 4.96542 -0.0714283 5.35674 0.018663 5.74878C 0.108028 6.14083 0.498181 6.38713 0.889062 6.29604C 1.55748 6.14229 2.23244 6.02642 2.90885 5.94845L 3.68843 5.88797C 3.92674 5.86975 4.14615 5.85663 4.35976 5.84643L 4.35976 7.28709C 4.35976 7.69006 4.68452 8.0158 5.0863 8.0158C 5.48808 8.0158 5.81284 7.69006 5.81284 7.28709L 5.81284 5.85153C 8.54537 5.9776 11.1202 6.71359 13.4096 7.92471L 12.6932 9.16861C 12.4927 9.51767 12.6118 9.96291 12.9591 10.164C 13.0732 10.2303 13.1982 10.2617 13.3217 10.2617C 13.5731 10.2617 13.8172 10.1312 13.9516 9.89732L 14.6658 8.65633C 16.9391 10.1028 18.8703 12.0397 20.3125 14.3199L 19.0752 15.0362C 18.7286 15.2373 18.6094 15.6825 18.8107 16.0316C 18.9458 16.2655 19.1892 16.396 19.4406 16.396C 19.5641 16.396 19.6891 16.3646 19.8032 16.2983L 21.0434 15.5798C 22.2676 17.9087 23.0036 20.5336 23.1133 23.318L 21.6784 23.318C 21.2766 23.318 20.9518 23.6437 20.9518 24.0467C 20.9518 24.4496 21.2766 24.7754 21.6784 24.7754L 23.1133 24.7754C 23.0036 27.5598 22.2676 30.1846 21.0434 32.5135L 19.8032 31.795C 19.4559 31.5939 19.0112 31.712 18.8107 32.0617C 18.6102 32.4108 18.7293 32.856 19.0766 33.0571L 20.3139 33.7735C 18.8717 36.0536 16.9406 37.9905 14.6672 39.437L 13.953 38.196C 13.7518 37.8462 13.3064 37.7274 12.9606 37.9293C 12.6126 38.1304 12.4934 38.5764 12.6947 38.9247L 13.411 40.1686C 11.1217 41.3797 8.54683 42.1157 5.8143 42.2418L 5.8143 40.8077C 5.8143 40.4047 5.48953 40.079 5.08775 40.079C 4.68598 40.079 4.36121 40.4047 4.36121 40.8077L 4.36121 42.2476C 3.20092 42.2075 2.037 42.0618 0.89124 41.798C 0.50036 41.704 0.110206 41.9532 0.0208415 42.3453C -0.0692499 42.7373 0.175596 43.1286 0.566476 43.2183C 2.01666 43.5535 3.49808 43.7225 4.96787 43.7225C 5.00347 43.7225 5.03762 43.7203 5.07322 43.7196C 5.07831 43.7196 5.08194 43.7225 5.0863 43.7225C 5.09211 43.7225 5.0972 43.7189 5.10301 43.7189C 8.5955 43.6948 11.8722 42.749 14.7072 41.1152C 14.7297 41.105 14.7537 41.0999 14.7755 41.0868C 14.79 41.078 14.798 41.0642 14.8118 41.0547C 17.7463 39.3393 20.1984 36.8829 21.9123 33.9418C 21.9261 33.9221 21.9436 33.9068 21.9559 33.885C 21.9646 33.8697 21.9639 33.8536 21.9712 33.8383C 23.6306 30.9526 24.5845 27.6108 24.5845 24.0474C 24.5845 20.484 23.6306 17.1421 21.9719 14.2565ZM 21.9218 6.01258L 22.9491 7.04297L 21.9218 8.07409L 20.8937 7.04297L 21.9218 6.01258ZM 4.35976 4.38756L 4.35976 2.18613L 1.81686 2.18613C 1.61706 2.18613 1.45358 2.02217 1.45358 1.82177C 1.45358 1.62138 1.61706 1.45742 1.81686 1.45742L 8.35574 1.45742C 8.55554 1.45742 8.71902 1.62138 8.71902 1.82177C 8.71902 2.02217 8.55554 2.18613 8.35574 2.18613L 5.81284 2.18613L 5.81284 4.38756C 5.56001 4.37735 5.31879 4.37225 5.0863 4.37225C 5.06596 4.37225 5.04271 4.37371 5.02236 4.37371C 5.0042 4.37371 4.98604 4.37225 4.96787 4.37225C 4.84872 4.37225 4.72957 4.38027 4.61042 4.38245C 4.52614 4.38464 4.44694 4.38391 4.35976 4.38756Z"/>
        <path id="path2_fill" d="M 4.35926 0L 0.726543 0C 0.324764 0 1.60749e-07 0.325733 1.60749e-07 0.728709C 1.60749e-07 1.13168 0.324764 1.45742 0.726543 1.45742L 4.35926 1.45742C 4.76104 1.45742 5.0858 1.13168 5.0858 0.728709C 5.0858 0.325733 4.76104 0 4.35926 0Z"/>
        <path id="path3_fill" d="M 7.99197 0L 0.726543 0C 0.324765 0 1.60749e-07 0.325733 1.60749e-07 0.728709C 1.60749e-07 1.13168 0.324765 1.45742 0.726543 1.45742L 7.99197 1.45742C 8.39375 1.45742 8.71852 1.13168 8.71852 0.728709C 8.71852 0.325733 8.39375 0 7.99197 0Z"/>
        <path id="path4_fill" d="M 11.6247 0L 0.726543 0C 0.324765 0 1.60749e-07 0.325733 1.60749e-07 0.728709C 1.60749e-07 1.13168 0.324765 1.45742 0.726543 1.45742L 11.6247 1.45742C 12.0265 1.45742 12.3512 1.13168 12.3512 0.728709C 12.3512 0.325733 12.0265 0 11.6247 0Z"/>
        <path id="path5_fill" d="M 14.5309 0L 0.726543 0C 0.324765 0 -1.24719e-08 0.325733 -1.24719e-08 0.728709C -1.24719e-08 1.13168 0.324765 1.45742 0.726543 1.45742L 14.5309 1.45742C 14.9326 1.45742 15.2574 1.13168 15.2574 0.728709C 15.2574 0.325733 14.9326 0 14.5309 0Z"/>
        <path id="path6_fill" d="M 10.1716 0L 0.726543 0C 0.324765 0 1.60749e-07 0.325733 1.60749e-07 0.728709C 1.60749e-07 1.13168 0.324765 1.45742 0.726543 1.45742L 10.1716 1.45742C 10.5734 1.45742 10.8981 1.13168 10.8981 0.728709C 10.8981 0.325733 10.5734 0 10.1716 0Z"/>
        <path id="path7_fill" d="M 5.81234 0L 0.726543 0C 0.324765 0 1.60749e-07 0.325733 1.60749e-07 0.728709C 1.60749e-07 1.13168 0.324765 1.45742 0.726543 1.45742L 5.81234 1.45742C 6.21412 1.45742 6.53889 1.13168 6.53889 0.728709C 6.53889 0.325733 6.21412 0 5.81234 0Z"/>
    </defs>
</svg>
