<svg width="49" height="15" viewBox="0 0 49 15" version="1.1" xmlns="http://www.w3.org/2000/svg" xmlns:xlink="http://www.w3.org/1999/xlink">
    <title>visa</title>
    <desc>Created using Figma</desc>
    <g id="Canvas" transform="translate(-923 2224)">
        <g id="visa">
            <g id="Vector">
                <use xlink:href="#path0_fill" transform="translate(940.967 -2223.53)" fill="#3C58BF"/>
            </g>
            <g id="Vector">
                <use xlink:href="#path1_fill" transform="translate(940.967 -2223.53)" fill="#293688"/>
            </g>
            <g id="Vector">
                <use xlink:href="#path2_fill" transform="translate(947.111 -2224)" fill="#3C58BF"/>
            </g>
            <g id="Vector">
                <use xlink:href="#path3_fill" transform="translate(947.111 -2224)" fill="#293688"/>
            </g>
            <g id="Vector">
                <use xlink:href="#path4_fill" transform="translate(957.844 -2223.53)" fill="#3C58BF"/>
            </g>
            <g id="Vector">
                <use xlink:href="#path5_fill" transform="translate(957.844 -2223.53)" fill="#293688"/>
            </g>
            <g id="Vector">
                <use xlink:href="#path6_fill" transform="translate(927.978 -2223.45)" fill="#3C58BF"/>
            </g>
            <g id="Vector">
                <use xlink:href="#path7_fill" transform="translate(927.978 -2223.45)" fill="#293688"/>
            </g>
            <g id="Vector">
                <use xlink:href="#path8_fill" transform="translate(923 -2223.53)" fill="#FFBC00"/>
            </g>
            <g id="Vector">
                <use xlink:href="#path9_fill" transform="translate(923 -2223.53)" fill="#F7981D"/>
            </g>
            <g id="Vector">
                <use xlink:href="#path10_fill" transform="translate(923 -2223.53)" fill="#ED7C00"/>
            </g>
            <g id="Group">
                <g id="Vector">
                    <use xlink:href="#path11_fill" transform="translate(928.056 -2221.96)" fill="#051244"/>
                </g>
                <g id="Vector">
                    <use xlink:href="#path12_fill" transform="translate(940.967 -2212.85)" fill="#051244"/>
                </g>
                <g id="Vector">
                    <use xlink:href="#path13_fill" transform="translate(947.111 -2214.26)" fill="#051244"/>
                </g>
                <g id="Vector">
                    <use xlink:href="#path14_fill" transform="translate(958.389 -2219.68)" fill="#051244"/>
                </g>
            </g>
        </g>
    </g>
    <defs>
        <path id="path0_fill" d="M 2.96699e-07 14.1361L 2.48889 -5.99167e-07L 6.37778 -5.99167e-07L 3.96667 14.1361L 2.96699e-07 14.1361Z"/>
        <path id="path1_fill" d="M 2.96699e-07 14.1361L 3.18889 -5.99167e-07L 6.37778 -5.99167e-07L 3.96667 14.1361L 2.96699e-07 14.1361Z"/>
        <path id="path2_fill" d="M 11.9 0.628272C 11.1222 0.314136 9.87778 5.99167e-07 8.32222 5.99167e-07C 4.43333 5.99167e-07 1.63333 1.96335 1.63333 4.79058C 1.63333 6.911 3.57778 8.01047 5.13333 8.71728C 6.68889 9.42408 7.15556 9.89529 7.15556 10.5236C 7.15556 11.466 5.91111 11.9372 4.82222 11.9372C 3.26667 11.9372 2.41111 11.7016 1.08889 11.1518L 0.544445 10.9162L 0 14.1361C 0.933333 14.5288 2.64445 14.9215 4.43333 14.9215C 8.55556 14.9215 11.2778 12.9581 11.2778 9.97382C 11.2778 8.32461 10.2667 7.06806 7.93333 6.04712C 6.53333 5.34031 5.67778 4.94765 5.67778 4.24084C 5.67778 3.61257 6.37778 2.98429 7.93333 2.98429C 9.25556 2.98429 10.1889 3.2199 10.8889 3.53403L 11.2778 3.6911L 11.9 0.628272Z"/>
        <path id="path3_fill" d="M 11.9 0.628272C 11.1222 0.314136 9.87778 5.99167e-07 8.32222 5.99167e-07C 4.43333 5.99167e-07 2.33333 1.96335 2.33333 4.79058C 2.33333 6.911 3.57778 8.01047 5.13333 8.71728C 6.68889 9.42408 7.15556 9.89529 7.15556 10.5236C 7.15556 11.466 5.91111 11.9372 4.82222 11.9372C 3.26667 11.9372 2.41111 11.7016 1.08889 11.1518L 0.544445 10.9162L 0 14.1361C 0.933333 14.5288 2.64445 14.9215 4.43333 14.9215C 8.55556 14.9215 11.2778 12.9581 11.2778 9.97382C 11.2778 8.32461 10.2667 7.06806 7.93333 6.04712C 6.53333 5.34031 5.67778 4.94765 5.67778 4.24084C 5.67778 3.61257 6.37778 2.98429 7.93333 2.98429C 9.25556 2.98429 10.1889 3.2199 10.8889 3.53403L 11.2778 3.6911L 11.9 0.628272Z"/>
        <path id="path4_fill" d="M 7.85556 -5.99167e-07C 6.92222 -5.99167e-07 6.22222 0.0785343 5.83333 1.02094L -5.93397e-07 14.1361L 4.2 14.1361L 4.97778 11.7801L 9.95555 11.7801L 10.4222 14.1361L 14.1556 14.1361L 10.8889 -5.99167e-07L 7.85556 -5.99167e-07ZM 6.06667 9.42408C 6.3 8.71728 7.62222 5.26178 7.62222 5.26178C 7.62222 5.26178 7.93333 4.39791 8.16667 3.84817L 8.4 5.18325C 8.4 5.18325 9.17778 8.71728 9.33333 9.50262L 6.06667 9.50262L 6.06667 9.42408Z"/>
        <path id="path5_fill" d="M 8.78889 -5.99167e-07C 7.85556 -5.99167e-07 7.15556 0.0785343 6.76667 1.02094L -5.93397e-07 14.1361L 4.2 14.1361L 4.97778 11.7801L 9.95555 11.7801L 10.4222 14.1361L 14.1556 14.1361L 10.8889 -5.99167e-07L 8.78889 -5.99167e-07ZM 6.06667 9.42408C 6.37778 8.63874 7.62222 5.26178 7.62222 5.26178C 7.62222 5.26178 7.93333 4.39791 8.16667 3.84817L 8.4 5.18325C 8.4 5.18325 9.17778 8.71728 9.33333 9.50262L 6.06667 9.50262L 6.06667 9.42408Z"/>
        <path id="path6_fill" d="M 5.83333 9.81676L 5.44444 7.77487C 4.74444 5.41885 2.48889 2.82723 7.41747e-08 1.57068L 3.5 14.1361L 7.7 14.1361L 14 -2.99584e-07L 9.8 -2.99584e-07L 5.83333 9.81676Z"/>
        <path id="path7_fill" d="M 5.83333 9.81676L 5.44444 7.77487C 4.74444 5.41885 2.48889 2.82723 7.41747e-08 1.57068L 3.5 14.1361L 7.7 14.1361L 14 -2.99584e-07L 10.5778 -2.99584e-07L 5.83333 9.81676Z"/>
        <path id="path8_fill" d="M 0 -5.99167e-07L 0.7 0.157068C 5.67778 1.33508 9.1 4.31937 10.4222 7.8534L 9.02222 1.17801C 8.78889 0.235602 8.08889 -5.99167e-07 7.23333 -5.99167e-07L 0 -5.99167e-07Z"/>
        <path id="path9_fill" d="M 0 -5.99167e-07C 4.97778 1.17801 9.1 4.24084 10.4222 7.77487L 9.1 2.19895C 8.86667 1.25655 8.08889 0.706807 7.23333 0.706807L 0 -5.99167e-07Z"/>
        <path id="path10_fill" d="M 0 -5.99167e-07C 4.97778 1.17801 9.1 4.24084 10.4222 7.77487L 9.48889 4.71204C 9.25556 3.76963 8.94445 2.82723 7.85556 2.43456L 0 -5.99167e-07Z"/>
        <path id="path11_fill" d="M 9.64444 7.8534L 7 5.18325L 5.75556 8.16754L 5.44444 6.20419C 4.74444 3.84817 2.48889 1.25654 0 -5.99167e-07L 3.5 12.5654L 7.7 12.5654L 9.64444 7.8534Z"/>
        <path id="path12_fill" d="M 3.96667 3.4555L 0.622222 1.19833e-06L 2.96699e-07 3.4555L 3.96667 3.4555Z"/>
        <path id="path13_fill" d="M 6.76667 -1.19833e-06C 7.07778 0.314135 7.23334 0.549739 7.15556 0.863875C 7.15556 1.80628 5.91111 2.27749 4.82222 2.27749C 3.26667 2.27749 2.41111 2.04189 1.08889 1.49215L 0.544445 1.25655L -5.52644e-15 4.47644C 0.933334 4.86911 2.64445 5.26178 4.43333 5.26178C 6.92222 5.26178 8.94445 4.55497 10.1111 3.29843L 6.76667 -1.19833e-06Z"/>
        <path id="path14_fill" d="M 0 10.288L 3.65556 10.288L 4.43333 7.93194L 9.41111 7.93194L 9.87778 10.288L 13.6111 10.288L 12.2889 4.55497L 7.62222 5.99167e-07L 7.85555 1.25654C 7.85555 1.25654 8.63333 4.79058 8.78889 5.57592L 5.52222 5.57592C 5.83333 4.79058 7.07778 1.41361 7.07778 1.41361C 7.07778 1.41361 7.38889 0.549739 7.62222 5.99167e-07"/>
    </defs>
</svg>
