<svg width="36" height="22" viewBox="0 0 36 22" version="1.1" xmlns="http://www.w3.org/2000/svg" xmlns:xlink="http://www.w3.org/1999/xlink">
    <title>mastercard</title>
    <desc>Created using Figma</desc>
    <g id="Canvas" transform="translate(-808 2227)">
        <g id="mastercard">
            <g id="Vector">
                <use xlink:href="#path0_fill" transform="translate(822.4 -2227)" fill="#FFB600"/>
            </g>
            <g id="Vector">
                <use xlink:href="#path1_fill" transform="translate(822.4 -2227)" fill="#F7981D"/>
            </g>
            <g id="Vector">
                <use xlink:href="#path2_fill" transform="translate(833.2 -2227)" fill="#FF8500"/>
            </g>
            <g id="Vector">
                <use xlink:href="#path3_fill" transform="translate(808 -2227)" fill="#FF5050"/>
            </g>
            <g id="Vector">
                <use xlink:href="#path4_fill" transform="translate(808 -2226.88)" fill="#E52836"/>
            </g>
            <g id="Vector">
                <use xlink:href="#path5_fill" transform="translate(818.686 -2226.88)" fill="#CB2026"/>
            </g>
            <g id="Group">
                <g id="Vector">
                    <use xlink:href="#path6_fill" transform="translate(820.971 -2218.4)" fill="#FFFFFF"/>
                </g>
                <g id="Vector">
                    <use xlink:href="#path7_fill" transform="translate(823.029 -2217.77)" fill="#FFFFFF"/>
                </g>
                <g id="Vector">
                    <use xlink:href="#path8_fill" transform="translate(829.143 -2218.92)" fill="#FFFFFF"/>
                </g>
                <g id="Vector">
                    <use xlink:href="#path9_fill" transform="translate(814.171 -2217.88)" fill="#FFFFFF"/>
                </g>
                <g id="Vector">
                    <use xlink:href="#path10_fill" transform="translate(817.657 -2217.94)" fill="#FFFFFF"/>
                </g>
                <g id="Vector">
                    <use xlink:href="#path11_fill" transform="translate(838.514 -2218.8)" fill="#FFFFFF"/>
                </g>
                <g id="Vector">
                    <use xlink:href="#path12_fill" transform="translate(809.029 -2218.8)" fill="#FFFFFF"/>
                </g>
                <g id="Vector">
                    <use xlink:href="#path13_fill" transform="translate(826.571 -2217.76)" fill="#FFFFFF"/>
                </g>
                <g id="Vector">
                    <use xlink:href="#path14_fill" transform="translate(832.743 -2217.88)" fill="#FFFFFF"/>
                </g>
                <g id="Vector">
                    <use xlink:href="#path15_fill" transform="translate(836.171 -2217.76)" fill="#FFFFFF"/>
                </g>
            </g>
            <g id="Group">
                <g id="Vector">
                    <use xlink:href="#path16_fill" transform="translate(820.857 -2218.4)" fill="#DCE5E5"/>
                </g>
                <g id="Vector">
                    <use xlink:href="#path17_fill" transform="translate(823.6 -2217.77)" fill="#DCE5E5"/>
                </g>
                <g id="Vector">
                    <use xlink:href="#path18_fill" transform="translate(829.714 -2218.92)" fill="#DCE5E5"/>
                </g>
                <g id="Vector">
                    <use xlink:href="#path19_fill" transform="translate(814.171 -2217.76)" fill="#DCE5E5"/>
                </g>
                <g id="Vector">
                    <use xlink:href="#path20_fill" transform="translate(817.714 -2217.94)" fill="#DCE5E5"/>
                </g>
                <g id="Vector">
                    <use xlink:href="#path21_fill" transform="translate(839.082 -2218.74)" fill="#DCE5E5"/>
                </g>
                <g id="Vector">
                    <use xlink:href="#path22_fill" transform="translate(809.029 -2218.8)" fill="#DCE5E5"/>
                </g>
                <g id="Vector">
                    <use xlink:href="#path23_fill" transform="translate(826.629 -2217.76)" fill="#DCE5E5"/>
                </g>
                <g id="Vector">
                    <use xlink:href="#path24_fill" transform="translate(832.743 -2217.76)" fill="#DCE5E5"/>
                </g>
                <g id="Vector">
                    <use xlink:href="#path25_fill" transform="translate(836.229 -2217.76)" fill="#DCE5E5"/>
                </g>
            </g>
        </g>
    </g>
    <defs>
        <path id="path0_fill" d="M 21.6 10.9115C 21.6 16.9158 16.8 21.8231 10.8 21.8231C 4.85714 21.8231 4.35965e-07 16.9158 4.35965e-07 10.9115C 4.35965e-07 4.90731 4.8 2.20234e-07 10.7429 2.20234e-07C 16.8 2.20234e-07 21.6 4.90731 21.6 10.9115Z"/>
        <path id="path1_fill" d="M 10.8 2.20234e-07C 16.7429 2.20234e-07 21.6 4.90731 21.6 10.9115C 21.6 16.9158 16.8 21.8231 10.8 21.8231C 4.85714 21.8231 4.35965e-07 16.9158 4.35965e-07 10.9115"/>
        <path id="path2_fill" d="M -8.71931e-07 2.20234e-07C 5.94286 2.20234e-07 10.8 4.90731 10.8 10.9115C 10.8 16.9158 6 21.8231 -8.71931e-07 21.8231"/>
        <path id="path3_fill" d="M 10.6857 2.20234e-07C 4.8 0.0577333 0 4.90731 0 10.9115C 0 16.9158 4.8 21.8231 10.8 21.8231C 13.6 21.8231 16.1143 20.7262 18.0571 18.9942C 18.4571 18.6478 18.8 18.2436 19.1429 17.8395L 16.9143 17.8395C 16.6286 17.4931 16.3429 17.089 16.1143 16.7426L 19.9429 16.7426C 20.1714 16.3962 20.4 15.992 20.5714 15.5879L 15.4857 15.5879C 15.3143 15.2415 15.1429 14.8374 15.0286 14.4333L 20.9714 14.4333C 21.3143 13.3363 21.5429 12.1817 21.5429 10.9693C 21.5429 10.161 21.4286 9.41048 21.3143 8.65996L 14.6857 8.65996C 14.7429 8.25582 14.8571 7.90943 14.9714 7.50529L 20.9143 7.50529C 20.8 7.10116 20.6286 6.69703 20.4571 6.35063L 15.4286 6.35063C 15.6 5.9465 15.8286 5.6001 16.0571 5.19597L 19.8857 5.19597C 19.6571 4.79184 19.3714 4.38771 19.0286 4.04131L 16.9143 4.04131C 17.2571 3.63718 17.6 3.29078 18 2.94439C 16.1143 1.15466 13.5429 0.115466 10.7429 0.115466C 10.7429 1.11838e-07 10.7429 2.20234e-07 10.6857 2.20234e-07Z"/>
        <path id="path4_fill" d="M 0 10.7961C 0 16.8003 4.8 21.7076 10.8 21.7076C 13.6 21.7076 16.1143 20.6107 18.0571 18.8787C 18.4571 18.5323 18.8 18.1282 19.1429 17.724L 16.9143 17.724C 16.6286 17.3776 16.3429 16.9735 16.1143 16.6271L 19.9429 16.6271C 20.1714 16.2807 20.4 15.8766 20.5714 15.4725L 15.4857 15.4725C 15.3143 15.1261 15.1429 14.7219 15.0286 14.3178L 20.9714 14.3178C 21.3143 13.2209 21.5429 12.0662 21.5429 10.8538C 21.5429 10.0455 21.4286 9.29502 21.3143 8.54449L 14.6857 8.54449C 14.7429 8.14036 14.8571 7.79396 14.9714 7.38983L 20.9143 7.38983C 20.8 6.9857 20.6286 6.58157 20.4571 6.23517L 15.4286 6.23517C 15.6 5.83104 15.8286 5.48464 16.0571 5.08051L 19.8857 5.08051C 19.6571 4.67638 19.3714 4.27224 19.0286 3.92585L 16.9143 3.92585C 17.2571 3.52171 17.6 3.17532 18 2.82892C 16.1143 1.03919 13.5429 1.10117e-07 10.7429 1.10117e-07L 10.6857 1.10117e-07"/>
        <path id="path5_fill" d="M 0.114285 21.7076C 2.91429 21.7076 5.42857 20.6107 7.37143 18.8787C 7.77143 18.5323 8.11429 18.1282 8.45714 17.724L 6.22857 17.724C 5.94286 17.3776 5.65714 16.9735 5.42857 16.6271L 9.25714 16.6271C 9.48571 16.2807 9.71429 15.8766 9.88571 15.4725L 4.8 15.4725C 4.62857 15.1261 4.45714 14.7219 4.34286 14.3178L 10.2857 14.3178C 10.6286 13.2209 10.8571 12.0662 10.8571 10.8538C 10.8571 10.0455 10.7429 9.29502 10.6286 8.54449L 4 8.54449C 4.05714 8.14036 4.17143 7.79396 4.28572 7.38983L 10.2286 7.38983C 10.1143 6.9857 9.94286 6.58157 9.77143 6.23517L 4.74286 6.23517C 4.91429 5.83104 5.14286 5.48464 5.37143 5.08051L 9.2 5.08051C 8.97143 4.67638 8.68571 4.27224 8.34286 3.92585L 6.22857 3.92585C 6.57143 3.52171 6.91429 3.17532 7.31429 2.82892C 5.42857 1.03919 2.85714 1.10117e-07 0.0571424 1.10117e-07L 4.35965e-07 1.10117e-07"/>
        <path id="path6_fill" d="M 1.65714 5.08051L 1.82857 4.09904C 1.77143 4.09904 1.65714 4.15678 1.54286 4.15678C 1.14286 4.15678 1.08571 3.92585 1.14286 3.81038L 1.48571 1.78972L 2.11429 1.78972L 2.28571 0.692797L 1.71429 0.692797L 1.82857 2.05109e-15L 0.685714 2.05109e-15C 0.685714 2.05109e-15 4.35965e-07 3.81038 4.35965e-07 4.27224C 4.35965e-07 4.96504 0.4 5.2537 0.914285 5.2537C 1.25714 5.2537 1.54286 5.13824 1.65714 5.08051Z"/>
        <path id="path7_fill" d="M -4.35965e-07 2.60529C -4.35965e-07 4.22182 1.08571 4.62595 2 4.62595C 2.85714 4.62595 3.2 4.45275 3.2 4.45275L 3.42857 3.35582C 3.42857 3.35582 2.8 3.64449 2.22857 3.64449C 0.971429 3.64449 1.2 2.72076 1.2 2.72076L 3.54286 2.72076C 3.54286 2.72076 3.71429 1.97023 3.71429 1.68156C 3.71429 0.931035 3.31429 0.00730704 2.05714 0.00730704C 0.857143 -0.108159 -4.35965e-07 1.16197 -4.35965e-07 2.60529ZM 2 0.931036C 2.62857 0.931036 2.51429 1.68156 2.51429 1.7393L 1.25714 1.7393C 1.25714 1.68156 1.37143 0.931036 2 0.931036Z"/>
        <path id="path8_fill" d="M 3.14286 5.6001L 3.37143 4.32998C 3.37143 4.32998 2.8 4.61864 2.4 4.61864C 1.6 4.61864 1.25714 3.98358 1.25714 3.29078C 1.25714 1.90519 1.94286 1.15466 2.74286 1.15466C 3.31429 1.15466 3.77143 1.50106 3.77143 1.50106L 3.94286 0.288665C 3.94286 0.288665 3.25714 2.20234e-07 2.62857 2.20234e-07C 1.31428 2.20234e-07 4.06024e-15 1.15466 4.06024e-15 3.34852C 4.06024e-15 4.79184 0.685713 5.7733 2.05714 5.7733C 2.51428 5.7733 3.14286 5.6001 3.14286 5.6001Z"/>
        <path id="path9_fill" d="M 2.17143 -2.20234e-07C 1.37143 -2.20234e-07 0.8 0.230932 0.8 0.230932L 0.628571 1.21239C 0.628571 1.21239 1.14286 0.981462 1.88571 0.981462C 2.28571 0.981462 2.62857 1.03919 2.62857 1.38559C 2.62857 1.61652 2.57143 1.67426 2.57143 1.67426C 2.57143 1.67426 2.22857 1.67426 2.05714 1.67426C 1.08571 1.67426 1.08991e-07 2.07839 1.08991e-07 3.40625C 1.08991e-07 4.44544 0.685714 4.67638 1.08571 4.67638C 1.88571 4.67638 2.22857 4.15678 2.28571 4.15678L 2.22857 4.61864L 3.25714 4.61864L 3.71429 1.44333C 3.71429 0.0577327 2.57143 -2.20234e-07 2.17143 -2.20234e-07ZM 2.4 2.59799C 2.4 2.77119 2.28571 3.69491 1.6 3.69491C 1.25714 3.69491 1.14286 3.40625 1.14286 3.23305C 1.14286 2.94438 1.31429 2.54025 2.17143 2.54025C 2.34286 2.59799 2.4 2.59799 2.4 2.59799Z"/>
        <path id="path10_fill" d="M 1.31429 4.73411C 1.6 4.73411 3.02857 4.79184 3.02857 3.23305C 3.02857 1.78972 1.65714 2.07839 1.65714 1.50106C 1.65714 1.21239 1.88571 1.09693 2.28571 1.09693C 2.45714 1.09693 3.08571 1.15466 3.08571 1.15466L 3.25714 0.115466C 3.25714 0.115466 2.85714 -4.40468e-07 2.17143 -4.40468e-07C 1.31429 -4.40468e-07 0.457143 0.346398 0.457143 1.50106C 0.457143 2.82892 1.88571 2.71345 1.88571 3.23305C 1.88571 3.57945 1.48571 3.63718 1.2 3.63718C 0.685714 3.63718 0.171429 3.46398 0.171429 3.46398L -2.17983e-07 4.50317C 0.0571426 4.61864 0.342858 4.73411 1.31429 4.73411Z"/>
        <path id="path11_fill" d="M 3.25714 -4.40468e-07L 3.02857 1.55879C 3.02857 1.55879 2.57143 0.981462 1.94286 0.981462C 0.914285 0.981462 8.71931e-07 2.25159 8.71931e-07 3.75265C 8.71931e-07 4.67637 0.457144 5.65784 1.42857 5.65784C 2.11429 5.65784 2.51429 5.19597 2.51429 5.19597L 2.45714 5.6001L 3.6 5.6001L 4.45714 0.0577328L 3.25714 -4.40468e-07ZM 2.74286 3.05985C 2.74286 3.69491 2.45714 4.50318 1.82857 4.50318C 1.42857 4.50318 1.2 4.15678 1.2 3.57945C 1.2 2.65572 1.6 2.07839 2.11428 2.07839C 2.51428 2.07839 2.74286 2.36705 2.74286 3.05985Z"/>
        <path id="path12_fill" d="M 1.08571 5.54237L 1.77143 1.38559L 1.88571 5.54237L 2.68571 5.54237L 4.17143 1.38559L 3.54286 5.54237L 4.74286 5.54237L 5.65714 -4.40468e-07L 3.77143 -4.40468e-07L 2.62857 3.40625L 2.57143 -4.40468e-07L 0.914286 -4.40468e-07L -2.72478e-08 5.54237L 1.08571 5.54237Z"/>
        <path id="path13_fill" d="M 1.25714 4.50318C 1.6 2.59799 1.65714 1.03919 2.45714 1.32786C 2.57143 0.57733 2.74286 0.288665 2.85714 2.20234e-07C 2.85714 2.20234e-07 2.8 2.20234e-07 2.62857 2.20234e-07C 2.11429 2.20234e-07 1.71429 0.692796 1.71429 0.692796L 1.82857 0.0577335L 0.742857 0.0577335L 0 4.56091L 1.25714 4.56091L 1.25714 4.50318Z"/>
        <path id="path14_fill" d="M 2.17143 -2.20234e-07C 1.37143 -2.20234e-07 0.8 0.230932 0.8 0.230932L 0.628572 1.21239C 0.628572 1.21239 1.14286 0.981462 1.88571 0.981462C 2.28571 0.981462 2.62857 1.03919 2.62857 1.38559C 2.62857 1.61652 2.57143 1.67426 2.57143 1.67426C 2.57143 1.67426 2.22857 1.67426 2.05714 1.67426C 1.08572 1.67426 -4.35965e-07 2.07839 -4.35965e-07 3.40625C -4.35965e-07 4.44544 0.685715 4.67638 1.08571 4.67638C 1.88571 4.67638 2.22857 4.15678 2.28571 4.15678L 2.22857 4.61864L 3.25714 4.61864L 3.71429 1.44333C 3.77143 0.0577327 2.57143 -2.20234e-07 2.17143 -2.20234e-07ZM 2.45714 2.59799C 2.45714 2.77119 2.34286 3.69491 1.65714 3.69491C 1.31429 3.69491 1.2 3.40625 1.2 3.23305C 1.2 2.94438 1.37143 2.54025 2.22857 2.54025C 2.4 2.59799 2.4 2.59799 2.45714 2.59799Z"/>
        <path id="path15_fill" d="M 1.25714 4.50318C 1.6 2.59799 1.65714 1.03919 2.45714 1.32786C 2.57143 0.57733 2.74286 0.288665 2.85714 2.20234e-07C 2.85714 2.20234e-07 2.8 2.20234e-07 2.62857 2.20234e-07C 2.11429 2.20234e-07 1.71429 0.692796 1.71429 0.692796L 1.82857 0.0577335L 0.742856 0.0577335L -4.35965e-07 4.56091L 1.25714 4.56091L 1.25714 4.50318Z"/>
        <path id="path16_fill" d="M 0 4.27224C 0 4.96504 0.4 5.2537 0.914286 5.2537C 1.31429 5.2537 1.65714 5.13824 1.77143 5.08051L 1.94286 4.09904C 1.88571 4.09904 1.77143 4.15678 1.65714 4.15678C 1.25714 4.15678 1.2 3.92585 1.25714 3.81038L 1.6 1.78972L 2.22857 1.78972L 2.4 0.692797L 1.82857 0.692797L 1.94286 -2.05109e-15"/>
        <path id="path17_fill" d="M -4.35965e-07 2.60529C -4.35965e-07 4.22182 0.514285 4.62595 1.42857 4.62595C 2.28571 4.62595 2.62857 4.45275 2.62857 4.45275L 2.85714 3.35582C 2.85714 3.35582 2.22857 3.64449 1.65714 3.64449C 0.4 3.64449 0.628571 2.72076 0.628571 2.72076L 2.97143 2.72076C 2.97143 2.72076 3.14286 1.97023 3.14286 1.68156C 3.14286 0.931035 2.74286 0.00730704 1.48571 0.00730704C 0.285714 -0.108159 -4.35965e-07 1.16197 -4.35965e-07 2.60529ZM 1.42857 0.931036C 2.05714 0.931036 2.17143 1.68156 2.17143 1.7393L 0.685714 1.7393C 0.685714 1.68156 0.8 0.931036 1.42857 0.931036Z"/>
        <path id="path18_fill" d="M 2.57143 5.6001L 2.8 4.32998C 2.8 4.32998 2.22857 4.61864 1.82857 4.61864C 1.02857 4.61864 0.685715 3.98358 0.685715 3.29078C 0.685715 1.90519 1.37143 1.15466 2.17143 1.15466C 2.74286 1.15466 3.2 1.50106 3.2 1.50106L 3.37143 0.288665C 3.37143 0.288665 2.68571 2.20234e-07 2.05714 2.20234e-07C 0.742856 2.20234e-07 4.06024e-15 1.15466 4.06024e-15 3.34852C 4.06024e-15 4.79184 0.114285 5.7733 1.48571 5.7733C 1.94286 5.7733 2.57143 5.6001 2.57143 5.6001Z"/>
        <path id="path19_fill" d="M 0.628571 1.15466C 0.628571 1.15466 1.14286 0.923729 1.88571 0.923729C 2.28571 0.923729 2.62857 0.981461 2.62857 1.32786C 2.62857 1.55879 2.57143 1.61652 2.57143 1.61652C 2.57143 1.61652 2.22857 1.61652 2.05714 1.61652C 1.08571 1.61652 1.08991e-07 2.02066 1.08991e-07 3.34852C 1.08991e-07 4.38771 0.685714 4.61864 1.08571 4.61864C 1.88571 4.61864 2.22857 4.09905 2.28571 4.09905L 2.22857 4.56091L 3.25714 4.56091L 3.71429 1.38559C 3.71429 0.0577331 2.57143 2.20234e-07 2.11429 2.20234e-07L 0.628571 1.15466ZM 2.97143 2.48252C 2.97143 2.65572 2.28571 3.57945 1.6 3.57945C 1.25714 3.57945 1.14286 3.29078 1.14286 3.11758C 1.14286 2.82892 1.31429 2.42479 2.17143 2.42479C 2.34286 2.48252 2.97143 2.48252 2.97143 2.48252Z"/>
        <path id="path20_fill" d="M 0 4.61864C 0 4.61864 0.342857 4.73411 1.31429 4.73411C 1.6 4.73411 3.02857 4.79184 3.02857 3.23305C 3.02857 1.78972 1.65714 2.07839 1.65714 1.50106C 1.65714 1.21239 1.88571 1.09693 2.28571 1.09693C 2.45714 1.09693 3.08571 1.15466 3.08571 1.15466L 3.25714 0.115466C 3.25714 0.115466 2.85714 -4.40468e-07 2.17143 -4.40468e-07C 1.31429 -4.40468e-07 1.02857 0.346398 1.02857 1.50106C 1.02857 2.82892 1.88571 2.71345 1.88571 3.23305C 1.88571 3.57945 1.48571 3.63718 1.2 3.63718"/>
        <path id="path21_fill" d="M 2.46129 1.50106C 2.46129 1.50106 2.00415 0.923728 1.37557 0.923728C 0.347003 0.923728 0.00414729 2.19385 0.00414729 3.69491C 0.00414729 4.61864 -0.110138 5.6001 0.86129 5.6001C 1.547 5.6001 1.947 5.13824 1.947 5.13824L 1.88986 5.54237L 3.03272 5.54237L 3.88986 -2.20234e-07L 2.46129 1.50106ZM 2.40415 3.00212C 2.40415 3.63718 1.88986 4.44544 1.26129 4.44544C 0.861288 4.44544 0.632718 4.09904 0.632718 3.52171C 0.632718 2.59799 1.03272 2.02066 1.547 2.02066C 1.947 2.02066 2.40415 2.30932 2.40415 3.00212Z"/>
        <path id="path22_fill" d="M 1.08571 5.54237L 1.77143 1.38559L 1.88571 5.54237L 2.68571 5.54237L 4.17143 1.38559L 3.54286 5.54237L 4.74286 5.54237L 5.65714 -4.40468e-07L 4.22857 -4.40468e-07L 2.62857 3.40625L 2.57143 -4.40468e-07L 1.94286 -4.40468e-07L -2.72478e-08 5.54237L 1.08571 5.54237Z"/>
        <path id="path23_fill" d="M -8.71931e-07 4.50318L 1.2 4.50318C 1.54286 2.59799 1.6 1.03919 2.4 1.32786C 2.51429 0.57733 2.68571 0.288665 2.8 2.20234e-07C 2.8 2.20234e-07 2.74286 2.20234e-07 2.57143 2.20234e-07C 2.05714 2.20234e-07 1.65714 0.692796 1.65714 0.692796L 1.77143 0.0577335"/>
        <path id="path24_fill" d="M 0.628572 1.15466C 0.628572 1.15466 1.14286 0.923729 1.88571 0.923729C 2.28571 0.923729 2.62857 0.981461 2.62857 1.32786C 2.62857 1.55879 2.57143 1.61652 2.57143 1.61652C 2.57143 1.61652 2.22857 1.61652 2.05714 1.61652C 1.08572 1.61652 -4.35965e-07 2.02066 -4.35965e-07 3.34852C -4.35965e-07 4.38771 0.685715 4.61864 1.08571 4.61864C 1.88572 4.61864 2.22857 4.09905 2.28571 4.09905L 2.22857 4.56091L 3.25714 4.56091L 3.71429 1.38559C 3.71429 0.0577331 2.57143 2.20234e-07 2.11429 2.20234e-07L 0.628572 1.15466ZM 2.97143 2.48252C 2.97143 2.65572 2.28571 3.57945 1.6 3.57945C 1.25714 3.57945 1.14286 3.29078 1.14286 3.11758C 1.14286 2.82892 1.31429 2.42479 2.17143 2.42479C 2.4 2.48252 2.97143 2.48252 2.97143 2.48252Z"/>
        <path id="path25_fill" d="M 8.71931e-07 4.50318L 1.2 4.50318C 1.54286 2.59799 1.6 1.03919 2.4 1.32786C 2.51428 0.57733 2.68571 0.288665 2.8 2.20234e-07C 2.8 2.20234e-07 2.74286 2.20234e-07 2.57143 2.20234e-07C 2.05714 2.20234e-07 1.65714 0.692796 1.65714 0.692796L 1.77143 0.0577335"/>
    </defs>
</svg>
