<svg width="51" height="15" viewBox="0 0 51 15" version="1.1" xmlns="http://www.w3.org/2000/svg" xmlns:xlink="http://www.w3.org/1999/xlink">
    <title>paypal</title>
    <desc>Created using Figma</desc>
    <g id="Canvas" transform="translate(-861 2223)">
        <g id="paypal">
            <g id="Group">
                <g id="Vector">
                    <use xlink:href="#path0_fill" transform="translate(895.995 -2220.36)" fill="#32A6CE"/>
                </g>
                <g id="Vector">
                    <use xlink:href="#path1_fill" transform="translate(895.995 -2220.26)" fill="#1A80AD"/>
                </g>
                <g id="Vector">
                    <use xlink:href="#path2_fill" transform="translate(904.321 -2223)" fill="#32A6CE"/>
                </g>
                <g id="Vector">
                    <use xlink:href="#path3_fill" transform="translate(904.321 -2223)" fill="#1A80AD"/>
                </g>
                <g id="Vector">
                    <use xlink:href="#path4_fill" transform="translate(886.959 -2223)" fill="#32A6CE"/>
                </g>
                <g id="Vector">
                    <use xlink:href="#path5_fill" transform="translate(886.876 -2223)" fill="#1A80AD"/>
                </g>
                <g id="Vector">
                    <use xlink:href="#path6_fill" transform="translate(870.118 -2220.36)" fill="#21789E"/>
                </g>
                <g id="Vector">
                    <use xlink:href="#path7_fill" transform="translate(870.201 -2220.26)" fill="#1A5B80"/>
                </g>
                <g id="Vector">
                    <use xlink:href="#path8_fill" transform="translate(878.529 -2220.35)" fill="#21789E"/>
                </g>
                <g id="Group">
                    <g id="Vector">
                        <use xlink:href="#path9_fill" transform="translate(878.529 -2220.35)" fill="#1A5B80"/>
                    </g>
                </g>
                <g id="Vector">
                    <use xlink:href="#path10_fill" transform="translate(861 -2223)" fill="#21789E"/>
                </g>
                <g id="Vector">
                    <use xlink:href="#path11_fill" transform="translate(861 -2223)" fill="#1A5B80"/>
                </g>
                <g id="Group">
                    <g id="Vector">
                        <use xlink:href="#path12_fill" transform="translate(870.118 -2217.26)" fill="#06435E"/>
                    </g>
                    <g id="Vector">
                        <use xlink:href="#path13_fill" transform="translate(882.452 -2220.35)" fill="#06435E"/>
                    </g>
                    <g id="Vector">
                        <use xlink:href="#path14_fill" transform="translate(861.25 -2215.06)" fill="#06435E"/>
                    </g>
                </g>
                <g id="Group">
                    <g id="Vector">
                        <use xlink:href="#path15_fill" transform="translate(887.126 -2215.24)" fill="#2273AA"/>
                    </g>
                    <g id="Vector">
                        <use xlink:href="#path16_fill" transform="translate(896.078 -2217.26)" fill="#2273AA"/>
                    </g>
                    <g id="Vector">
                        <use xlink:href="#path17_fill" transform="translate(904.321 -2216.74)" fill="#2273AA"/>
                    </g>
                </g>
            </g>
            <g id="Group">
                <g id="Vector">
                    <use xlink:href="#path18_fill" transform="translate(909.412 -2222.56)" fill="#32A6CE"/>
                </g>
                <g id="Vector">
                    <use xlink:href="#path19_fill" transform="translate(910.664 -2222.65)" fill="#32A6CE"/>
                </g>
            </g>
        </g>
    </g>
    <defs>
        <path id="path0_fill" d="M 4.82021 0.00653128C 3.56817 0.00653128 2.56653 0.359473 1.73183 0.535943L 1.48142 2.56536C 1.89877 2.38889 3.06735 2.03594 4.06898 1.94771C 5.07062 1.94771 5.65491 2.12418 5.48797 3.09477C 2.48306 3.09477 0.479786 3.71241 0.0624372 5.83006C -0.521851 9.35947 3.15082 9.44771 4.5698 7.85947L 4.40286 8.83006L 7.0739 8.83006L 8.24247 3.09477C 8.65982 0.712414 6.65655 -0.081704 4.82021 0.00653128ZM 4.98715 5.9183C 4.82021 6.62418 4.23592 6.88889 3.56817 6.97712C 2.98388 6.97712 2.48306 6.62418 2.81694 5.9183C 3.15082 5.38888 3.90204 5.38888 4.48633 5.38888C 4.65327 5.38888 4.90368 5.38888 5.15409 5.38888C 5.07062 5.30065 4.98715 5.65359 4.98715 5.9183Z"/>
        <path id="path1_fill" d="M 1.48142 2.47059C 1.89877 2.29412 3.06735 1.94118 4.06898 1.85294C 5.07062 1.85294 5.65491 2.02941 5.48797 3C 2.48306 3 0.479786 3.61765 0.0624372 5.73529C -0.521851 9.26471 3.15082 9.35294 4.5698 7.76471L 4.40286 8.73529L 7.0739 8.73529L 8.24247 3C 8.74329 0.617646 6.65655 -3.36591e-07 4.82021 -3.36591e-07L 1.48142 2.47059ZM 4.98715 5.82353C 4.82021 6.52941 4.23592 6.79412 3.56817 6.88235C 2.98388 6.88235 2.48306 6.52941 2.81694 5.82353C 3.15082 5.29412 3.90204 5.29412 4.48633 5.29412C 4.65327 5.29412 4.90368 5.29412 5.15409 5.29412C 5.07062 5.20588 4.98715 5.55882 4.98715 5.82353Z"/>
        <path id="path2_fill" d="M 2.17021 -6.73182e-07L 1.27365e-06 11.4706L 2.67103 11.4706L 4.92471 -6.73182e-07L 2.17021 -6.73182e-07Z"/>
        <path id="path3_fill" d="M 4.09002 -6.73182e-07L 1.27365e-06 11.4706L 2.67103 11.4706L 4.92471 -6.73182e-07L 2.17021 -6.73182e-07L 4.09002 -6.73182e-07Z"/>
        <path id="path4_fill" d="M 7.09493 -6.73182e-07L 2.17021 -6.73182e-07L 3.18412e-07 11.4706L 2.92144 11.4706L 3.67267 7.94117L 5.75941 7.94117C 7.76269 7.94117 9.43208 6.70588 9.84943 4.5C 10.2668 1.94118 8.51391 -6.73182e-07 7.09493 -6.73182e-07ZM 7.01146 3.97059C 6.84452 4.7647 6.09329 5.29412 5.34206 5.29412L 4.00655 5.29412L 4.59083 2.64706L 6.00982 2.64706C 6.76105 2.64706 7.1784 3.17647 7.01146 3.97059Z"/>
        <path id="path5_fill" d="M 7.1784 -6.73182e-07L 3.83961 -6.73182e-07L 0 11.4706L 2.92144 11.4706L 3.67267 7.94117L 5.75941 7.94117C 7.76269 7.94117 9.43208 6.70588 9.84943 4.5C 10.3502 1.94118 8.59738 -6.73182e-07 7.1784 -6.73182e-07ZM 7.09493 3.97059C 6.92799 4.7647 6.17676 5.29412 5.42553 5.29412L 4.09002 5.29412L 4.6743 2.64706L 6.09329 2.64706C 6.84452 2.64706 7.26187 3.17647 7.09493 3.97059Z"/>
        <path id="path6_fill" d="M 4.65456 0.00653128C 3.40251 0.00653128 2.40087 0.359473 1.64965 0.535943L 1.39924 2.56536C 1.73312 2.38889 2.98516 2.03594 3.9868 1.94771C 4.98843 1.94771 5.57272 2.12418 5.40578 3.09477C 2.48434 3.09477 0.48107 3.71241 0.0637209 5.83006C -0.520567 9.35947 3.06863 9.44771 4.48762 7.85947L 4.32068 8.83006L 6.99171 8.83006L 8.16028 3.09477C 8.57763 0.712414 6.49089 -0.081704 4.65456 0.00653128ZM 4.90496 5.9183C 4.73803 6.62418 4.15374 6.88889 3.48598 6.97712C 2.90169 6.97712 2.40087 6.62418 2.81822 5.9183C 3.1521 5.38888 3.90333 5.38888 4.40415 5.38888C 4.65456 5.38888 4.8215 5.38888 5.0719 5.38888C 4.98844 5.30065 4.90496 5.65359 4.90496 5.9183Z"/>
        <path id="path7_fill" d="M 1.39924 2.47059C 1.73312 2.29412 2.98516 1.94118 3.9868 1.85294C 4.98844 1.85294 5.57272 2.02941 5.40578 3C 2.48434 3 0.48107 3.61765 0.0637212 5.73529C -0.520567 9.26471 3.06863 9.35294 4.48762 7.76471L 4.23721 8.73529L 6.90824 8.73529L 8.07682 3C 8.57763 0.617646 6.49089 -3.36591e-07 4.65456 -3.36591e-07L 1.39924 2.47059ZM 4.8215 5.82353C 4.65456 6.52941 4.07027 6.79412 3.40251 6.88235C 2.81822 6.88235 2.3174 6.52941 2.73475 5.82353C 3.06863 5.29412 3.81986 5.29412 4.32068 5.29412C 4.57109 5.29412 4.73803 5.29412 4.98844 5.29412C 4.90497 5.20588 4.8215 5.55882 4.8215 5.82353Z"/>
        <path id="path8_fill" d="M 0.834697 -6.73182e-07L 3.50573 -6.73182e-07L 3.92308 4.94117L 6.59411 -6.73182e-07L 9.34861 -6.73182e-07L 3.00491 12.3529L 0 12.3529L 1.9198 8.64706L 0.834697 -6.73182e-07Z"/>
        <path id="path9_fill" d="M 3.50573 0.176471L 3.92308 5.02941L 6.59411 -6.73182e-07L 9.34861 -6.73182e-07L 3.00491 12.3529L 0 12.3529L 1.9198 8.73529"/>
        <path id="path10_fill" d="M 7.1784 -6.73182e-07L 2.17021 -6.73182e-07L 0 11.4706L 2.92144 11.4706L 3.67267 7.94117L 5.75941 7.94117C 7.76269 7.94117 9.43208 6.70588 9.84943 4.5C 10.3502 1.94118 8.59738 -6.73182e-07 7.1784 -6.73182e-07ZM 7.09493 3.97059C 6.92799 4.7647 6.17676 5.29412 5.42553 5.29412L 4.09002 5.29412L 4.6743 2.64706L 6.09329 2.64706C 6.84452 2.64706 7.26187 3.17647 7.09493 3.97059Z"/>
        <path id="path11_fill" d="M 7.1784 -6.73182e-07L 4.92471 -6.73182e-07L 0 11.4706L 2.92144 11.4706L 3.67267 7.94117L 5.75941 7.94117C 7.76269 7.94117 9.43208 6.70588 9.84943 4.5C 10.3502 1.94118 8.59738 -6.73182e-07 7.1784 -6.73182e-07ZM 7.09493 3.97059C 6.92799 4.7647 6.17676 5.29412 5.42553 5.29412L 4.09002 5.29412L 4.6743 2.64706L 6.09329 2.64706C 6.84452 2.64706 7.26187 3.17647 7.09493 3.97059Z"/>
        <path id="path12_fill" d="M 4.15374 -6.73182e-07C 1.90005 0.17647 0.3976 0.882352 0.0637209 2.64706C -0.520567 6.17647 3.06863 6.2647 4.48762 4.67647L 4.32068 5.73529L 6.99171 5.73529L 7.40906 3.61765L 4.15374 -6.73182e-07ZM 4.90496 2.82353C 4.73803 3.52941 4.15374 3.79412 3.48598 3.88235C 2.90169 3.88235 2.40087 3.52941 2.81822 2.82353C 3.1521 2.29412 3.90333 2.29412 4.40415 2.29412C 4.65456 2.29412 4.8215 2.29412 5.0719 2.29412C 4.98844 2.20588 4.90496 2.55882 4.90496 2.82353Z"/>
        <path id="path13_fill" d="M 0.166939 4.85294L 6.36824e-07 5.11765L 1.75286 6.88235L 5.42553 -6.73182e-07L 2.67103 -6.73182e-07L 0.166939 4.85294Z"/>
        <path id="path14_fill" d="M 2.67103 3.52941L 3.42226 -6.73182e-07L 9.95037e-09 3.52941L 2.67103 3.52941Z"/>
        <path id="path15_fill" d="M 2.67103 3.70588L 3.42226 3.36591e-07L 3.42226 0.088236L -6.36824e-07 3.70588L 2.67103 3.70588Z"/>
        <path id="path16_fill" d="M 4.15245 -6.73182e-07C 1.89877 0.17647 0.396315 0.882352 0.0624359 2.64706C -0.521852 6.17647 3.15082 6.2647 4.5698 4.67647L 4.31939 5.73529L 6.99043 5.73529L 7.40777 3.61765L 4.15245 -6.73182e-07ZM 4.90368 2.82353C 4.73674 3.52941 4.15245 3.79412 3.4847 3.88235C 2.90041 3.88235 2.39959 3.52941 2.73347 2.82353C 3.06735 2.29412 3.81857 2.29412 4.40286 2.29412C 4.5698 2.29412 4.82021 2.29412 5.07062 2.29412C 4.98715 2.20588 4.90368 2.55882 4.90368 2.82353Z"/>
        <path id="path17_fill" d="M 1.9198 -3.36591e-07L 1.27365e-06 5.20588L 2.67103 5.20588L 3.42226 1.67647L 1.9198 -3.36591e-07Z"/>
        <path id="path18_fill" d="M 0.417349 1.41176L 0.417349 0.176471L 0 0.176471L 0 -6.73182e-07L 1.08511 -6.73182e-07L 1.08511 0.176471L 0.667757 0.176471L 0.667757 1.41176L 0.417349 1.41176Z"/>
        <path id="path19_fill" d="M 0 1.5L 0 0.0882346L 0.250409 0.0882346L 0.584289 1.05882C 0.584289 1.14706 0.667757 1.23529 0.667757 1.23529C 0.667757 1.14706 0.667759 1.14706 0.751229 0.970587L 1.08511 6.73182e-07L 1.33551 6.73182e-07L 1.33551 1.41176L 1.16858 1.41176L 1.16858 0.17647L 0.751229 1.41176L 0.500817 1.41176L 0.0834685 0.17647L 0.0834685 1.41176L 0 1.41176L 0 1.5Z"/>
    </defs>
</svg>
