<svg width="17" height="15" viewBox="0 0 17 15" version="1.1" xmlns="http://www.w3.org/2000/svg" xmlns:xlink="http://www.w3.org/1999/xlink">
    <title>star</title>
    <desc>Created using Figma</desc>
    <g id="Canvas" transform="translate(-822 2268)">
        <g id="star">
            <g id="Vector">
                <use xlink:href="#path0_fill" transform="translate(822 -2268)" fill="#2B8BBB"/>
            </g>
        </g>
    </g>
    <defs>
        <path id="path0_fill" d="M 3.23539 14.9993C 3.17606 14.9993 3.11672 14.9813 3.06684 14.9455C 2.97855 14.8824 2.9344 14.7756 2.95304 14.6699L 3.83909 9.59284L 0.0864594 5.99764C 0.00848854 5.92269 -0.0196039 5.81082 0.013935 5.7091C 0.0477606 5.6071 0.137484 5.53271 0.245554 5.51721L 5.43119 4.77642L 7.75054 0.157232C 7.7987 0.060864 7.89845 8.8679e-09 8.00738 8.8679e-09C 8.1166 8.8679e-09 8.21636 0.060864 8.26423 0.157232L 10.5833 4.77642L 15.7692 5.51721C 15.8773 5.53271 15.9667 5.60682 16.0008 5.7091C 16.0344 5.81082 16.0066 5.92297 15.9283 5.99764L 12.1757 9.59341L 13.0614 14.6702C 13.0798 14.7759 13.0356 14.8827 12.9476 14.9458C 12.8593 15.0095 12.7421 15.0176 12.6455 14.9672L 8.00738 12.5704L 3.36869 14.9672C 3.32684 14.9886 3.28097 14.9993 3.23539 14.9993ZM 0.902574 5.99257L 4.34705 9.29303C 4.41442 9.35756 4.44537 9.45111 4.42932 9.54241L 3.61607 14.2024L 7.87409 12.0023C 7.9575 11.9589 8.05698 11.9589 8.14097 12.0023L 12.3984 14.2024L 11.5854 9.54241C 11.5694 9.45111 11.6003 9.35784 11.6677 9.29303L 15.1122 5.99257L 10.3522 5.31264C 10.2588 5.2994 10.1782 5.24163 10.1364 5.15851L 8.00738 0.918878L 5.87838 5.15879C 5.83652 5.24191 5.75597 5.29968 5.66252 5.31292L 0.902574 5.99257Z"/>
    </defs>
</svg>
