<svg width="26" height="25" viewBox="0 0 26 25" version="1.1" xmlns="http://www.w3.org/2000/svg" xmlns:xlink="http://www.w3.org/1999/xlink">
    <title>google-plus-logo-button</title>
    <desc>Created using Figma</desc>
    <g id="Canvas" transform="translate(-844 2186)">
        <g id="google-plus-logo-button">
            <g id="Group">
                <g id="Group">
                    <g id="Group">
                        <g id="Vector">
                            <use xlink:href="#path0_fill" transform="translate(851.452 -2171.72)" fill="#2B8BBB"/>
                        </g>
                        <g id="Vector">
                            <use xlink:href="#path1_fill" transform="translate(852.235 -2178.68)" fill="#2B8BBB"/>
                        </g>
                        <g id="Vector">
                            <use xlink:href="#path2_fill" transform="translate(844 -2186)" fill="#2B8BBB"/>
                        </g>
                    </g>
                </g>
            </g>
        </g>
    </g>
    <defs>
        <path id="path0_fill" d="M 3.49713 0.292536C 3.41514 0.238661 3.33111 0.180255 3.24301 0.121345C 2.98685 0.0438051 2.7149 0.00352415 2.43633 -3.7646e-07L 2.40272 -3.7646e-07C 1.12242 -3.7646e-07 1.90384e-07 0.76583 1.90384e-07 1.63991C 1.90384e-07 2.59154 0.962004 3.33521 2.18934 3.33521C 3.80829 3.33521 4.62872 2.78237 4.62872 1.6948C 4.62872 1.59208 4.6165 1.48534 4.59053 1.37809C 4.48103 0.956155 4.08941 0.692822 3.49713 0.292536Z"/>
        <path id="path1_fill" d="M 1.8069 3.9369C 1.80792 3.9369 1.80792 3.9369 1.80792 3.9369C 2.11399 3.9369 2.37219 3.81757 2.57233 3.59099C 2.88604 3.23753 3.02507 2.6575 2.94257 2.04171C 2.79743 0.941049 2.00144 0.0246716 1.17083 0.00100693L 1.13773 -3.84143e-09C 0.84388 -3.84143e-09 0.581608 0.119834 0.382485 0.345404C 0.0733604 0.694332 -0.057522 1.24718 0.0234513 1.86196C 0.169102 2.96161 0.981891 3.91173 1.79519 3.9369L 1.8069 3.9369Z"/>
        <path id="path2_fill" d="M 12.643 0C 5.6717 0 0 5.60753 0 12.5C 0 19.392 5.6717 25 12.643 25C 19.6139 25 25.2861 19.392 25.2861 12.5C 25.2861 5.60753 19.6149 0 12.643 0ZM 11.1855 18.5869C 10.7078 18.7233 10.1909 18.7923 9.64856 18.7923C 9.04457 18.7923 8.46401 18.7238 7.92266 18.5884C 6.8751 18.3271 6.10101 17.8316 5.73943 17.1932C 5.5836 16.9172 5.50466 16.6232 5.50466 16.3186C 5.50466 16.0049 5.58054 15.6867 5.73027 15.3715C 6.30421 14.1621 7.81724 13.3484 9.49324 13.3484C 9.51004 13.3484 9.52583 13.3484 9.54111 13.3484C 9.40513 13.1113 9.33944 12.8655 9.33944 12.6072C 9.33944 12.4789 9.35675 12.3479 9.39138 12.2145C 7.63339 12.1752 6.31796 10.9024 6.31796 9.2242C 6.31796 8.03945 7.27589 6.88492 8.64582 6.41867C 9.05578 6.2787 9.47388 6.2072 9.88486 6.2072L 13.6443 6.2072C 13.7721 6.2072 13.8857 6.28927 13.9254 6.40961C 13.9651 6.52944 13.9213 6.66136 13.8179 6.73538L 12.9771 7.33707C 12.9267 7.37231 12.8661 7.39144 12.8035 7.39144L 12.5025 7.39144C 12.8911 7.85215 13.1187 8.50922 13.1187 9.24686C 13.1187 10.061 12.7021 10.8309 11.9438 11.4175C 11.3582 11.8686 11.3353 11.993 11.3353 12.2503C 11.3424 12.3917 11.7503 12.8535 12.2005 13.1681C 13.2491 13.9013 13.6392 14.6208 13.6392 15.8211C 13.6387 17.0753 12.6756 18.1589 11.1855 18.5869ZM 19.6755 12.2115C 19.6755 12.3726 19.5426 12.5035 19.3801 12.5035L 17.2438 12.5035L 17.2438 14.6167C 17.2438 14.7779 17.1108 14.9088 16.9494 14.9088L 16.3408 14.9088C 16.1768 14.9088 16.0444 14.7779 16.0444 14.6167L 16.0444 12.5035L 13.9096 12.5035C 13.7466 12.5035 13.6142 12.3736 13.6142 12.2115L 13.6142 11.6108C 13.6142 11.4497 13.7466 11.3178 13.9096 11.3178L 16.0444 11.3178L 16.0444 9.20658C 16.0444 9.04495 16.1768 8.91455 16.3408 8.91455L 16.9494 8.91455C 17.1108 8.91455 17.2438 9.04495 17.2438 9.20658L 17.2438 11.3178L 19.3796 11.3178C 19.5421 11.3178 19.675 11.4487 19.675 11.6098L 19.675 12.2115L 19.6755 12.2115Z"/>
    </defs>
</svg>
