<svg width="26" height="25" viewBox="0 0 26 25" version="1.1" xmlns="http://www.w3.org/2000/svg" xmlns:xlink="http://www.w3.org/1999/xlink">
    <title>twitter-logo-button</title>
    <desc>Created using Figma</desc>
    <g id="Canvas" transform="translate(-881 2186)">
        <g id="twitter-logo-button">
            <g id="Group">
                <g id="Group">
                    <g id="Vector">
                        <use xlink:href="#path0_fill" transform="translate(881.065 -2186)" fill="#2B8BBB"/>
                    </g>
                </g>
            </g>
        </g>
    </g>
    <defs>
        <path id="path0_fill" d="M 12.643 0C 5.6717 0 0 5.60753 0 12.5C 0 19.392 5.6717 25 12.643 25C 19.6139 25 25.2861 19.392 25.2861 12.5C 25.2861 5.60753 19.6149 0 12.643 0ZM 18.2832 9.63909C 18.2888 9.76295 18.2918 9.88782 18.2918 10.0127C 18.2918 13.8146 15.3656 18.1972 10.0117 18.1972C 8.36827 18.1972 6.83843 17.7223 5.551 16.9057C 5.77865 16.9324 6.01036 16.9459 6.24513 16.9459C 7.60895 16.9459 8.86327 16.4857 9.8594 15.7144C 8.58623 15.6912 7.51117 14.8594 7.14093 13.716C 7.31816 13.7492 7.50099 13.7678 7.68789 13.7678C 7.95321 13.7678 8.2109 13.7336 8.45484 13.6676C 7.12362 13.4038 6.12087 12.2412 6.12087 10.8465C 6.12087 10.8344 6.12087 10.8218 6.12138 10.8102C 6.51352 11.0252 6.96218 11.1551 7.43886 11.1697C 6.65866 10.6547 6.14481 9.77352 6.14481 8.77558C 6.14481 8.24791 6.28791 7.75346 6.53847 7.32851C 7.97307 9.06962 10.1181 10.2146 12.5361 10.3354C 12.4862 10.1245 12.4612 9.90544 12.4612 9.67937C 12.4612 8.09081 13.7639 6.80234 15.3707 6.80234C 16.2079 6.80234 16.9632 7.15178 17.4948 7.71067C 18.1584 7.58177 18.7797 7.34311 19.3435 7.01231C 19.1245 7.68448 18.6646 8.24791 18.0622 8.60439C 18.6514 8.5349 19.2136 8.38083 19.7336 8.15174C 19.3455 8.72775 18.852 9.23477 18.2832 9.63909Z"/>
    </defs>
</svg>
